<svg width="972" height="600" viewBox="0 0 972 600" fill="none" xmlns="http://www.w3.org/2000/svg">
<path fill-rule="evenodd" clip-rule="evenodd" d="M0 365.3L0.2 365.1L0.5 365L0.7 364.7L1.1 364.6L1.4 364.7L1.6 364.4H1.8L2.3 364.1L2.7 364L2.9 363.8V363.5L3.3 363L3.4 362.6L3.5 362.1L3.7 361.9L4.1 362L4.5 361.8L5 360.9V360.3L5.7 360.2V359.6H6L6.3 359.5L6.4 358.8L6.7 358.4H6.9L7 357.8L7.4 358L7.7 358.2L7.8 358L8.2 358.1L8.4 357.7L8.7 357.6L8.9 357.7L9.4 357.5L9.3 357.3L9.5 356.8V356.2L9.7 355.7L10 355.2V355L10.4 354.5V354.3L10.6 354.2L10.7 353.5L10.8 353.3L11 352.6L11.1 352.5L11.4 351.9V351.4L11.7 350.9H11.6L11.8 350.6L12 350.7V350.4H12.2L12.3 350.1L13.2 349.9L13.3 350.1L13.2 350.5L13.4 350.7L13.5 350.6L13.8 350.3L13.7 350.1L13.8 349.9L14.1 350.4L14.3 350.3V350.5L14.4 350.4L14.6 350.6L14.8 350.5V350.3L14.9 350.5V351L14.8 351.3L15.5 351.4L15.6 351V350.7L15.8 350.4L15.9 350.5L16.2 350.3V350.2H16.5L16.4 349.8L16.9 349.9L17 350.1L17.1 349.9L17.2 349.4L17.7 349.2V349L18 348.9L18.7 349.2L18.9 349L18.8 348.6L19 348.5L18.5 347.1L19.4 346L20.2 345.4L20.4 345.5L20.8 345.4L21.6 345.6L22.3 346L22.6 345.8L23 345.9L23.3 345.7L23.4 344.7V344L23.3 343.7L23.4 343.1L23.3 342.9V342.4L23.2 341.3L23.4 340.4L23.7 340.1L24.3 338.4L24.1 338.1L24.2 337L24.6 336L24.8 335.6L25.2 334.9H25.6V335.1L25.9 335.3L26.2 335.7L26.4 335.9L26.6 336.1L26.5 336.6L26.6 336.8L26.4 337V337.6L26.6 337.9L27 338.2H27.2L27.7 338.1L28.2 338L28.3 337.9L28.9 337.8L29.3 337.7L29.9 337.3L30.1 337.4L30.5 337.7L30.8 337.8L31.3 338L31.6 338.2L32.1 338.5L32.6 338.7L32.9 338.6L33 338.3L32.8 338.1L33.1 337.6V337.4L32.9 337L33.2 336.5L33.5 336.3L33.6 335.9L33.8 335.7L34.3 336.2L34.6 336.3L35.2 336.7L35.4 336.5L35.9 336.3L36.3 336.6L36.4 337L36.7 337.5V337.6L37 338.2H37.3L37.6 337.8L38.1 338H38.3L38.5 338.1L39.2 337.6L39.5 337.5L39.8 337.3L40.3 337.1L40.6 337.2L40.9 337.1L41 337.2L41.5 337H42.5L42.8 336.9L43.4 337.6L43.7 338.5L44.2 339H44.5L44.8 339.3L45.7 339.4L46 339.3H46.6H47H47.5L47.6 338.7L47.7 338L47.6 337.3L47.8 337.1L47.9 337.2L48.1 337.1L48.3 337.2V337L48.5 337.2H48.8V337.4H49V337.6H49.6V337.8L49.8 337.9V338.2L50.1 338.5L50.2 338.4H50.4L50.5 338.2L50.7 338.4L50.9 338.3L51 338.5L51.1 338.3L51.3 338.5L51.5 338.4L51.6 338.7L52.1 338.9L52.3 339.2L52.6 338.9L52.7 339.1H52.9L53.4 338.8V338.5L53.7 338.4V338.1L53.8 338V337.8L54.1 338L54.4 337.9V338.1L54.9 338.2L55.5 338L55.6 337.9L55.7 337.6L55.8 337.7L55.9 337.5L56.1 337.8V337.6L56.4 337.7V337.6L56.7 337.8L57 337.5V337.1H56.5L55.9 336.4L54.8 335.7H54.2L54 335.3L53.7 335.1L53.6 334.8L53.4 334.7L53.3 334.4L52.9 334.1V333.7L52.8 333.5L52.7 333.1L52.1 333.4L51.7 332.1L51.3 331.9L51.1 332L50.7 331.6L50.4 331.3L50.3 331.5L50.1 331.1L49.4 331.4L48.5 332.4L48.3 332.6L47.8 333.1L47.4 332.5L46.5 331.6L46.8 331.2L47.3 330.6L46.7 330.3L46.9 330.1L47.2 329.8L47.8 329.6L48.3 329.5L49 329.4L49.3 328.9L49.7 328.8H50.3L50.4 328.7L50.6 328.9L51.1 328.6L51.4 328.2L51.8 328L53 327.8V328L54.4 327.7L54.5 327.5L55 327.7L55.4 327.4V327.2H55.7L56.2 327.4L56.7 327.2L57 327L57.3 326.6L57.6 326.4L58.2 326.1V324.9L57.3 324.4L56.7 323.9L55.7 323.5L55.3 323.2L54.7 323.1H54.1H54L53.4 323.4L53.3 323.1L53.1 323.2L53 322.8L52.8 322.7V322.1L51.4 322.4L51.3 321.9L51.1 321.7V321.4L51.3 320.8H51.5L51.7 319.9L51.3 319.5L51.1 319.6L50.7 319.3V319L50.4 319.1L50.5 318.9L50 317.9L50.5 317.8L50.2 317.1L51.4 316.7L51.2 316.4L51.7 315.8L52.1 316.6L53.1 316.3L52.8 315L55.4 314.7L55.3 311.9H55.4L56.6 311.8L57.5 311.7L58.4 311.3H59L59.5 311.1L59.4 309L59.1 309.1L58.5 308.4L58.4 308.1L58.1 307.2L57.7 306.5L56.6 306.4L55.8 306.5H54.7L53.6 306.6L53.2 306.8L52.4 307.2L52 307.5L50.9 307.9L50.6 307.8L49.7 308H49.4V307.8L48.7 308L48.5 307.3L48.3 307.4L48.1 307.3L48.2 307.1L48 305.9L48.2 305.8L48.4 305.6V305.4L48.6 304.7L49.3 304.8V304.6L49.6 304.4V304L49.9 303.9L49.7 303.5V302.7L50.2 302.5L50 301.9L49.9 302L49.5 301.1V300.8L49.2 300.7L49.1 300.2L48.7 299.1L48.6 298.7L48.8 298.5L48.6 298.3L48.3 298.5L48.2 298.3L47.6 298.5L47.2 298.7L46.9 298.9L45.7 299.1L45.4 299H45.2L44.9 298.8L44.4 297.9L44.2 297.6L43.9 297L43.8 296.9L44 296.4L43.7 295.6L43.6 295.3V294.9L43.4 294.7L43.6 293.9L43.7 293.6H44L44.1 293.9V294.1L44.4 294.2L44.6 294L45 293.7L45.5 293.6L46.2 293.7L46.1 293.3L46 293.2V292.6V292.3H46.3L46.6 292L46.2 291H46.3L46.4 290.3V289.5L46.9 289.4L46.8 289.1L46.9 288.7H47.1L47 287.7V287.2L46.9 286.1V285.6L45.3 285.2L45.5 284.6L47 285.1L47.9 285.2L47.6 284.6L48.8 284.5L49.7 284L49.9 284.2L50.4 284.4L50.6 284.7L50.8 284.2L51.2 283.7L51.8 283.3L52.1 283L52.4 282.6L52.2 282.5L52 280.6L52.1 279.8L52.3 279.4L52.7 279.3L52.9 279.4L53.8 278.9L53.5 278.3V278.2L53 277.3V277L52.7 276.5L52.8 276.2L52.7 275.7V275.2L52.3 274.4L52 273.5L51.7 272.4V272.2L51 271.1L50.9 270.7V270L50.8 269.5L50.5 269L50.1 268.5L50 268L50.2 267.7L50 267.1L49.8 267L49.3 266.5L49 266.4L48.2 266.5L47.8 266.3L47.5 265.6V265.3L47.3 264.9L46.5 264.3L46.3 264L45.8 263.6L45.9 263.3L46.3 263L47.2 262.8L47.6 262.6L47.8 262.5L48.5 262.6L48.3 261.8L48.5 261.7L48.9 261.1L49.1 260.5V260.2V259.7L49 259.3L48.8 259L48.5 258.7L48.3 258.3V257.9L48.6 257.3L48.9 257L49.2 257.1H49.7V257L49.2 256.8V256.6L48.9 256.3V256L48.2 255.1L47.8 254V253.7L47.6 253.3V252.8L47.5 252.2L47.7 251.8L48 251.5L48.3 251.3H48.6L49 250.9L49.3 250.8L49.7 251L50.2 250.9L50.4 251.2L50.8 251.3L51.2 251.4L51.6 251.7H51.8L52.4 251.6L53.2 251.7L53.1 251.8L53.5 252.1L53.4 252.3H53.8L53.9 252.4L53.5 252.6L53.1 253.1L53 253.4L52.9 253.7L53.1 253.8L53 254V254.2L53.8 253.6L53.5 254.1L53.6 254.3V254.7H53.9L54.3 254.8L54.4 254.5L54.8 254.4V255.9L55.1 255.6L55.3 255.5L55.7 255H55.8L56.3 254.6L56.7 254.3L56.8 253.5L56.7 253.3L56.5 253.1L56.4 252.8L56.5 252.4L56.7 252.3L57.2 252.5L57.4 251.8L57.7 251.6V251.3L58 251.5L58.9 251.4L59.1 251.7H59.2L59.6 251.4H59.8L60.4 251.7L60.7 251.5H61L61.3 251.8L61.4 252L61.7 252.3L61.9 252.4H62.6L63 252.2H63.4L63.9 252.1L64.5 252.3H64.8L65.2 252.2L65.5 252.3L65.9 252.4L66.1 252.2L66.2 251.7L66.4 251.6L66 251.2V251L66.6 250.7L66.8 250.6L67.1 250.3V250L66.9 250.1L66.6 249.8L67 249.4H67.3H67.7V249.6L68 249.5L67.9 249.2H68.4V249L67.8 249.1L67.9 248.8L68.3 248.7L68.7 248.9L69 248.7H69.2L69.3 248.6L69.5 248.5L69.6 248.2H70.1L70.5 247.9L70.3 247.7L70.5 247.4H70.7L71 247.3L71.1 247L71.3 246.9V247.2H71.6L71.7 247.1L71.8 246.7L72 246.8L72.1 247.1H72.5L72.8 246.2V245.9L73.1 245.7L73.3 245.2L73.4 244.8L73.7 244.6L74.2 244.3L74.8 243.9H75.4L76.2 243.7L76.6 243.4L77 243.2L76.6 242.7L77.3 242.4L77.8 242.2L78.5 241.8L78.3 241.5V240.9L78.1 240.7L78.2 240.4L78.4 240.3L78.3 240.1L78.5 239.5L78.8 239.3L79.3 238.4L79.6 238.1L79.7 237.9L79.5 237.2L79.4 236.8L79.1 236.3H78.7L78.5 236L78.4 235.4L77.8 234.2L77.2 232.7L77.1 232.3L77.3 232.2L77.5 231.6L77.9 231L78.6 230.5L78.9 230.9L79.5 231.7L79.7 231.5L80.1 231.3L80.5 231.1L81.1 230.9L81.8 230.5H82L82.5 230.2L82.7 229.8L83.1 229.3L83.2 229.1V228.7L83.3 228.6L84 228L84.3 227.8L84.7 227.5V226.8L84.5 226.4V225.9L84.4 225.4L85.3 224.6V224.5L85.7 224.4L86 223.9L85.5 223.3L85.2 223.2L84.8 223.4L84.5 222.7L84.3 222.8L84.1 222.6L83.7 222.7L83.2 221.9L82.9 221.3L82.7 221.1L82.5 220.6L82.6 220.1L82.3 219.8L82 219.5H81.6V219.4L81 219.5H80.8L80.1 219.8L79.8 219.7L79.5 219.2L79.4 218.7L78.8 218.3L78.6 217.8L78.8 217.7H79.1L79.8 217.3V217V216.5L80.1 216.3L80.4 215.7V215L80.2 214.5L79.8 213.5L79.5 212.7L79.1 212V211.7L79.4 211.3L79.7 211L79.8 210.8L79.7 210.7L80.1 210.1L79.8 209.9L79.5 210H78.5L78.1 209.9L77.7 208L77.2 206.9V206.5L76.9 206.3L75.5 205.7L75 205.5L74.6 205.3L74.1 205.2L73.6 205.3L73.2 205.5L72.3 205.7L71.5 206.4L70.5 206.7H70.2L69.8 207H69.6L69.2 207.3L68.2 207.5L67.3 207.4L67.1 207.2L66.3 207.1L65.7 207L65.4 206.8L65 206.3L64.7 206.1L64.1 205.9L63.9 205.5L63.6 205.3L63.3 205L62.9 204.8L62.6 204.3L62.3 204.1L61.7 203.8L61.2 203.5L60.9 203.4L60.8 203.2L60.5 203.1L60 202.8L59.4 202.4L59 202.3H58.7L58.6 202.4L58.4 202.1L57.8 201.7L57.3 201.4H57.2V201.8L57 202.1L56.6 202.4L56.3 202.7L56.2 203L55.6 202.7L55.3 202.8H54.8L54.7 202.6L54.2 202.2L53.8 202.4L53.5 202.3L53.1 201.7L52.9 201.5L52.8 201L52.5 200.7L52.3 200.6L51.7 200.5L51.2 200.3L50.7 200.2L49.9 200.3L49.6 199.9L49.3 199.8H48.8L48.3 199.4L47.7 199.2H46.7L46.4 199L45.7 198.5H45.5L45 198.3L44.5 197.9L44.2 197.6L44 197.3L44.6 196.8L45 196.6H45.2L46 196.3L46.8 195.8L47.1 195.5L47.2 195.2L47.1 194.9V194.4L47.2 193.9L47.4 193.4L47.5 193V192.2L47.8 191.7L47.7 190.7H48.2L48.4 190.6H48.7L49.2 192.3L49.5 193.3L49.8 193.6L50.3 193.8L50.5 194L50.6 193.9H50.9L51 193.7H51.2L51.4 193.9H51.7L51.8 193.5L51.7 193.4L51.9 192.7L51.8 192.3L51.9 192H52.6L52.9 191.9L53.3 191.5L53 191L53.4 190.4L54.3 190.3L54.5 190.1L54.8 189.6H54.9L55 189.2L55.4 189L55.8 189.2L56.1 189.1L56.6 188.8L56.9 188.5H57.1L57.3 188.3L57.7 188.5L58.2 187.3L58.5 187.6L59.2 187.7L59.7 187.6L60.2 187.7L60.3 187.6L60.7 187.4H61.1L61.3 187.2L61.2 187.1L61.7 186.3L62.1 185.8L62.8 185.2L62.3 184.5L61 182.8L60.5 182.2L60.8 181.8L60.7 181.4L61.4 180.9H61.6L61.7 181.2L62.3 180.8L62 180.3L62.2 180.2L62 179.8L61.9 179.4L62.1 179.5L62 179.1L62.2 179H64.8L67.2 178.2L67.9 178.1L68 177.8L68.5 177.4L69 177.7L69.4 178L69.9 177.6L70.2 177.5L70.9 177.1H71.4L71.8 177.3L72.5 177.7L73.2 177.8H73.6L74 177.5L74.5 177.4V177.7L74.9 178L75.1 178.3L75.2 178.9L75.1 179.3L75.3 179.7L76.1 180.2L76.8 180.5L77.2 180.7L77.6 181.1H77.8L77.9 180.7L79.8 181.3L81.2 181.5L86.9 182.4L87 185.1L88.1 187.5L90.5 193L90.9 193.9L98.4 193.7L99.5 193.6H102.3L102.8 192.5L102.9 191.7L103.8 189L104.1 188.7L105.2 188.1L106.2 187.6L106.3 187.3L106.9 186.6L107.5 185.9L107.8 185.3L108.1 185.4L108.3 189.2L108.5 192.1L109 192.4L110.3 192.5L114.3 192.6L114.4 192.5L123.5 191.1L127.1 190.3L132.7 189L133.7 188.9L140.2 188.2L137.6 185.1L137.5 185L136.9 183.9L137 183.2L136.9 182.7L137 181.7V179.3L136.9 178.5L136.8 177.8H136.7L136.3 175.7H136.5L136 173.4H135.6L135.2 171.6L134.7 170.7L134.2 169.9L134.5 169.2L135.8 168.1L137.1 166.9H137.5L136.7 165.8L136 165.2L135.4 164.4L135.6 163.8L133.6 162.6L134 162L133.6 161.6L134.3 160.6L133.1 159.8L128.5 156.4L128.3 156.2L128.5 155.9L129 154.9H128.9L129.2 154.3L129.4 154.1L131 154.2H132.2L132.6 154.4L134 153.7L133.8 153.3L135.9 152.9L138 152.1L138.4 152.8H139.1L141.8 147.5L141.3 147.1L140.8 146.6L140.5 146.4L140.8 146.2L140.6 146L141.6 145.1L141.5 145L143 141.5L141.5 140.7L139.9 140L140.7 138.9L140.9 138.7L141.3 138.3L141.6 137.7L142.1 137.1L142.3 136.7L142.5 136L142.6 135.7L143 135.2L143.2 134.8L143.5 134.5L143.6 134.3L142.9 133.7L142.7 133.6L142.4 133.8L141.8 133.2L141.1 133L140.7 132.6L140.4 132.2L141.9 131.1L142.9 130.3L143.2 130L143.6 129.5L144 129.1L144.7 128.7L145.7 127.9L146.2 127.4L146.1 127.2L146.9 126.7L147.8 125.9L149.3 125.1L149.9 124.5L150.1 124.3L150.5 124L152 123.2L152.4 123.1L153.7 122.5L154.2 122.2L154.7 122L155.3 122.2L155.4 121.8L155.8 121.6L156.5 121.9H157.5L158.5 122.4L159.3 122.5L160.2 122.1L160.7 122L161.3 121.5V121.3L161.5 121.1L162 121.7L162.2 122.4L162.3 123.4V124.8L162.4 125.1L162.8 125.6L163.1 125.9L163.8 126.2L164.7 126.5L166.6 127.2H166.9H167.6H168.2L169 126.9L169.6 126.8H170.7H171.4L172 127H172.5L173.1 126.9L174 127.1L174.6 127.3L175 127.6L175.9 128.6L176.5 129.7L177.2 130.5L177.8 131.1L178.5 131.7L179 132.1L179.5 132.7L180.2 133.9L180.5 134.4L180.8 134.8L181.6 135.4L182.8 136L183.6 136.3L184 136.5L184.3 136.7L184.8 137.4L184.9 137.9L185 138.3L185.2 138.9L185.9 139.9L186.3 140.3L187 140.7L187.3 140.9L187.5 141.2L187.8 141.7L188 142L188.6 142.6L188.8 142.9L189.2 143.8L189.3 144.3L189.4 145.1L189.7 146L190.2 147L190.6 147.5L190.8 147.8L191.2 148.8L191.5 149.8L191.9 150.5L192.5 151L193.4 151.4L194.1 151.6L194.7 151.7L195.1 151.9L195.6 152.2L197 153.3L197.8 154L198.1 154.2L198.4 154.3L199.1 154.5H200.4L201.1 154.3H201.5L202.1 154.5L202.4 154.8L202.9 155.8L203.5 156.6L204.1 156.9L204.5 157.2L204.6 157.5L204.7 158L204.5 158.7L204.7 159.4L204.8 159.7L205.2 160.3L205.4 160.9L205.5 161.7L205.8 162.2L206.6 163L206.9 163.4L207.1 164.1L207.3 164.5L207.9 165.3L208.4 165.6L208.9 165.7L209.3 165.5L210.6 164.4L211.1 164.2L212.4 164.1L212.9 163.9L213.4 163.8L214 164L214.8 164.9L217.2 167.9L217.6 168.2L218.7 169.1L219.8 169.8L220.9 170.5L221.9 171.3L222.3 171.7L224.1 173.2L224.8 173.6L225.3 173.9L226.1 174.6L226.5 175.1L226.7 175.5L227.4 176.7L227.9 177.4L228.1 177.7L228.5 178L228.9 178.2L229.7 178.4L230.2 178.5L231 178.4L231.8 178.6L232.8 178.9L233.6 179.2L234.2 179.3H235.5L235.9 179.4L236.5 179.6L236.9 180L237.3 180.4L237.7 181L238.1 181.4L238.5 181.5L238.9 181.6L239.5 181.5L240 181.4L240.5 181.2L241.3 180.7L241.6 180.6L242.2 180.5H242.6L243.5 180.7L244.6 181.3L244.9 181.4H245.3L246.1 181.3L247.5 181.1L249.6 180.5L250.1 180.3L250.6 180.2H251.2L251.6 180.3L253.8 181.2L254.9 181.6H255.7L256.2 181.4L256.9 181.1L258.2 180.7L258.6 180.6L261.1 180.5L262 180.4H262.4L262.7 180.3L263.5 179.5L263.8 179.1L264.3 178.5L265.5 177.8L265.9 177.6H266.1L266.9 177.9L267.5 178.3L269.1 179.5L269.9 179.9L270.4 180.1H270.7L271.6 179.7L272.1 179.3L272.5 179.1L272.9 178.9L273.3 178.6L274.2 178L274.9 177.8L275.5 177.7H275.7L276.7 177.8L278.1 177.9H279.9H280.8H282.5H282.7L283.9 178.3L284.5 178.5L286.2 178.9H286.5L288.2 179.1L289.2 179.2L290.3 179.5L290.8 179.6L291.7 179.9L292.8 180.2L293.5 180.5L294.7 181.1L295.3 181.2H295.7L296.9 181.4H297.7L298.2 181.5L298.6 181.4H299L300.1 181.1L301 180.9H301.7L302 181L303.7 181.3H304.1L305.2 181.4L307.2 181.8L308.3 182L308.7 182.2L309.2 182.6L309.5 182.8L310.2 183L311.7 183.3H312.4L314.2 182.7H314.5L315.4 182.6L316.1 182.5L317.1 182.2L318.7 181.8L319.4 181.6L320.2 181.2L321 181L322.1 180.7L322.6 180.6H323L323.6 180.3L324.8 179.6L325.3 179.3L325.9 179.1L326.5 178.9H327.4L328.5 178.7L330 178.3L331.3 178.2L332.1 177.9L332.2 177.7L333 177.2L333.8 176.7L333.9 176.5L335 176.1L336 176.2L336.8 176.3L337.7 176.7L338 177L339.6 178.4L339.9 178.6L340.8 178.7L342.2 178.5L343 178.3L343.7 178.1L345.2 177.6L345.7 177.3L346.8 176.5L347.2 176.2H347.7H348.9L350.1 175.9H350.6L352.3 176.1L353.2 176.4L354.6 176.7L355.8 177.2L357 177.4L357.4 177.6H358.8L359.7 177.5L361.2 177.3L362.1 177.4H362.5L363.7 176.9H364.2L365.9 176.2L366.5 175.9H366.7L367.7 175.6L367.9 175.4L370.1 173.8L371.4 172.5L371.7 172.3L372.6 172.1L372.9 171.9L374 171L374.3 170.6L374.7 169.6V168L375 166.8L375.3 166.4L375.8 165.9L376.2 165.7L377.8 165.2L379.7 165L380.1 164.9L380.4 164.7L381 164.1H381.2L383.4 163.7H384L385.6 164L386.1 164.2L386.5 164.5L387 164.7H387.6L388.6 164.6L390.4 165L391.5 165.1V164.8L391.6 164.3L392.6 163.1L392.5 162.8L392.1 162.7L391.9 162.3L391.7 162.2L391 162.4L390.4 162.5L390.2 162.4L389.5 161.9L389 161.7L388.6 161.3L388.7 160.9L388.3 160.4L387.8 159.7L387.7 159.1L387.8 158.4L387.7 157.9L386.8 157.1L386.5 156.8L385.8 156.7L385 156.6L384.1 156.3L383.9 156.1L383.8 155.7L383.7 155.1L383.5 154.7L382.8 154.6H382.5L382 154.7H381.9L381.8 154.3L381.5 153.9L381.3 153.8L381 154H380.7L380.4 154.1L380.1 154V153.9L380.2 153.6L380.1 153.3H379.9L379.5 153.5L379.4 153.4L379.3 153.1L379.4 152.8V152L379.5 151.3L379.4 150.8L379.1 149.1L378.9 148.6V148.2L378.4 148.1V147.7L378.5 147.6L378.8 147.2L378.9 146.9L379.2 146.6V146.4H378.8L378.7 146.2V145.7L379.2 145.3L379.1 144.9V144.8L378.9 144.2L378.6 144L378.5 143.5V143.1L378.7 142.7L379.2 142.4L379.8 141.7L380.2 141.2L380.5 140.5L380.9 140.3L380.5 140.2V139.9L380.8 139.5V139.1L380.6 138.4L380.7 137.8L380.5 136.8L380.6 136.5L380.8 136.2L381.2 135.9V135.4L381.1 135.2L380.8 134.7L380.6 134.1L380.4 133.9L379.9 133.7L379.6 133.4L379.5 133L379.3 132.8L378.6 132.4L378.2 131.9L378.1 131.6V131.2L378.2 130.8L378.4 130.6L379.2 130L379.7 129.4L380 129.2L380.2 129.1H380.6L380.8 129.3H381.3L381.7 129.1L382.6 128.8H382.9L384 129.1H384.4L385 128.9L386.1 128.1L386.9 127.3L387.1 126.7L386.8 126.5L387.1 126.2L387.3 125.8L387.1 125.7V125.6L387.3 125.2V124.9L387.6 124.6V124.3L387 123.6V123.1V122.3L386.8 121.4L387 121L387.2 120.9L387.9 120.3L388.3 119.6L388.4 119.1L388.3 118.7L388.1 118.3L387.6 118L387.7 117.8L387.5 117.7L387.6 117.5L387.4 117.4L387.7 116.8L387.8 116.7L388.7 117.1L389.3 115.6L390 115.9L390.3 115.1L391.1 114.7L392 115.1V115.3L392.5 115.6L393 115.4L393.2 115.2L395.3 115.9L395.4 115.5L395.6 115.6L395.8 115.4L396.2 115.3L396.5 115L396.8 115.2L396.5 114.9L396.6 114.3L396.8 114.2L396.9 113.7L397 113.5L397.3 113.6L397.6 114L397.7 114.4L397.9 114.2L399.6 114.7L400.2 115L400.5 114.8L401.4 114.5L402.2 114.2L402.9 113.7L403 113.8L404 113.4L405.2 113.3L405.8 113.5H406.3H406.8L407.5 113.4L408 113.5L408.2 113.7L408.3 113.6L408.5 113.7L408.7 113.4L408.9 113.6V113.8L409.2 114L409.5 113.9V114.2L409.8 113.9L410 114.2H410.2L410.4 114.4L410.6 114.5L411 114.1H411.3L411.5 113.7L411.9 113.6L412 113.5L411.8 113.4L412.1 113L411.9 112.8L412.1 112.5L412 112.1L412.1 112L412.7 111.3L413.8 111.2L414 111L414.5 110.9L414.6 110.8L414.3 110.4L414.4 110.1L414.6 110.4L415 110.3V110.1L414.4 109.9L414.5 109.6H414.7L414.9 109.9L415.2 109.5L415.3 109.3V109.2H415.8L415.7 109.4H415.5L415.3 109.7H415.7V109.9L415.9 110H416L416.2 110.1L416.1 110.7L416.2 110.8L416.4 110.4L416.6 110.3L416.9 110.5L417.2 111L417.4 111.2L417.5 111.4L417.6 111.6L417.8 111.2L418 111.8L417.9 112.1H418.3L418.4 111.7L418.8 112L419 111.9L419.2 112L419.6 111.8L419.8 111.7L420.1 111.9L420.3 112.2L421.1 113.2L421.5 113.6H421.8L421.9 113.4L422.3 112.6L422.6 112.1H422.8L423.2 111.9L423.3 112.1L423.8 111.8L424 111.6L424.4 111.5L424.5 111L424.9 110.6L425.3 110.4L425.6 110.3L426.1 110.5L426.8 110.9L427.4 111.5L427.9 111.6L428.4 111.9H428.7L429.2 111.7L430 111.8L430.2 111.7L430.5 111.4L430.6 110.9L431.1 110.7L431.4 110.2L431.8 110.1L432.3 110.2L432.6 110.1H432.8L433.1 110.4H433.5L433.8 110.7V111L434.1 111.2L434.3 111.3L434.7 111.6L435.2 111.7L435.5 111.9L435.9 112L436.8 111.9L437.2 112L437.7 112.3L438.4 112.4L438.9 112.8H439.1H439.7L440.2 113H440.4L440.8 112.8L441.5 112.7L441.9 112.4H442.8L443.5 112.2L443.9 112.3L444.4 112.5L445 112.6L445.2 112.8L445.7 113.6L445.9 113.8L446.2 114H446.7L447.4 114.4L447.8 114.5L448.1 114.3L448.4 113.9L448.7 113.6L448.8 113.2V112.7L449 112.1L449.3 111.7L449.6 110.9L450.1 110.5L451.2 110.1L451.6 110L452.3 110.2L452.8 110.1L453.1 109.9L453.3 109.6L453.6 108.8L453.9 108.3L456.3 107L456.6 106.9L457.1 107L457.8 107.2L458.3 107.3L458.8 107.1L459.8 106.6H460.4L461.6 106.9H461.8L462.5 106.7H462.9L463.5 106.9H463.8L464.1 106.7V106.5L464.4 106.7L464.7 106.6L464.8 106.9L465 107.1L465.2 106.9H465.5L465.6 107.1H465.9L465.8 107.4L466 107.5H466.3L466.7 107.3L466.5 107.2L466.6 107.1L466.3 106.9L466.4 106.7L467 106.6L467.4 106.4L467.9 106.3V106.5L468.3 106.3H468.6L468.5 106.6L468.8 106.4L468.6 106.7L468.8 106.8L469 106.7V107L469.3 107.1V107.2H469.1L469 107.5L469.3 107.3L469.7 107.4L470 107.6L469.8 108L470.2 107.8L470.4 107.9L470.3 108L470.2 108.3H470.5L470.7 107.7L470.8 107.6L471.2 107.7L471.4 107.4L471.7 107L471.8 106.9L472.1 107L472.5 106.9L472.8 107.3L473.2 106.9L473.5 107L473.7 106.7L473.9 106.9H474.1L474.2 106.6L474.7 106L474.9 105.9L475.4 105.5L475.3 105.2H475.5L475.6 105L475.5 104.8V104.6H476.2L476.6 104.3H476.9L477.4 104.5L478.2 104.2L478.3 104.8H478.6V105L478.5 105.2H478.2L478 105.1L477.8 105.3V105.7L477.9 106.1V106.3L478.1 106.4L478.4 106.8L478.5 107.1L479 107.3L479.2 107.4L479.1 107.7L479.2 108.1L479.4 108.2L479.8 108H480.1L480.4 107.7L480.3 107.4L480.1 107L480.3 106.2L480.8 105.7L481.2 105.6H481.7L482.1 105.4L482.5 104.8L482.9 104.7L483 104.3L482.6 103.9L482.5 103.7L482.6 103.4L483 103.2L483.2 102.9L483.8 102.7L484 102.4V102H483.6L483.5 101.9L483.8 101.5L484 101.4L483.7 100.8V100.6L483.9 100.3H484L484.2 100.1V99.9L484 99.5L484.2 99.6L484.4 99.2L484.1 98.8L483.9 98.7L484.1 98.4L483.9 98.1L484.1 97.9H484.2L484.3 97.6V97.1L484.1 96.9L484.2 96.7V96.4L483.9 96.3L484 96.2L483.7 96.1L483.8 95.9L484 95.7V95.8L484.4 95.7L484.2 95.6V95.4L484.6 95.2L484.8 95.5V94.8L485 94.7L485.5 94.5H485.7L486 94.3L486.3 93.3L486.6 92.8V92.4L486.4 91.9L486.3 91.6L486.5 91.2L486.3 90.3L486.2 90.1V89.7L486 89.3L485.7 89L485.5 88.9V88.7L485.9 88.5L486.2 88.4L486 88.3L485.8 87.8L486 87.7L486.3 87.9H486.4L486.3 87.6L486.6 87L486.8 86.9V87.1L487.2 87V86.6H487.4L487.8 86.7L488.2 86.4L488.1 86.1L488.2 85.9L488.6 85.6L489 84.9L488.9 84.5L489 84L488.9 83.5L488.6 83.3L488.4 82.9L488.5 82.4L489 82L489.8 81.8L490 81.7L490.4 81.2L490.8 81.1L491 81.2L491.2 81.7L491.4 81.9L491.6 81.8L492.2 81.3L492.8 81.1L493.1 80.6L493.7 80.2L494.1 80.1L494.5 79.7H495.7L496 79.6L496.4 79L497.1 78.4L497.4 78L497.8 77.6L498 77.2L498.2 77L499 76.4L499.4 76.3L499.5 76.1L500.2 74.8L500.4 74.6L500.9 74.4L501.3 74.2L501.9 73.9L502.1 73.7L502.4 73.5L502.6 73.1L502.7 73L503.2 72.8L503.3 72.5L503.5 72.3L503.9 72.7L505.5 74.1V74.7L506 74.8L506.4 75L506.9 74.9L507.2 74.5L507.5 74.2L507.7 74.1L508.1 74.2H508.5L508.9 74.4L509.3 74.9L509.2 75.7L509.7 76.1L509.5 76.5V76.9L509.8 77.6L510 77.9L509.8 78.2L509.7 78.5L509.8 78.8L510.1 79.1H510.3L510.6 79.6L510.5 80.3L511 80.7L511.3 80.8L511.4 81L511.9 81.4L512.2 81.6V82.2L512.6 82L513.1 82.1L513.3 82.3H513.7L513.8 82.5L514.2 82.8H514.6L514.9 82.5L515.1 82.6H515.4L516.5 82.8L516.6 82.5L517 82.3L517.3 81.6L517.6 81.4L517.8 80.8L518 80.4L518.2 80L518.6 79.7L519.1 79.6H519.5L519.8 79.5H520.1L520.4 79.7L520.8 79.8L521 80L521.3 79.9L521.5 80.1L522 80L522.3 80.3L522.5 80.8L522.4 81.1L522.6 81.5L523.2 81.9H523.8L524 82.3L524.3 82.5L524.7 82.6L525.1 82.8L525.8 83.8V84.4L525.9 84.7L526.6 84.4H527.1L527.3 84.2H527.6L527.7 84.5L528 84.7V85.3L528.5 86.1L528.6 86.3L528.4 86.7L527.8 87.3L527.4 87.7L527.1 87.8L526.9 88.2L526.5 88.4L526.1 88.8L526.2 89.3L526.3 89.9L525.9 90.1L525.7 90.3L525.2 90.5L525.3 90.7L525.6 91L525.9 91.7H526.2L526.3 92L526.7 92.7L527 93L527.6 92.9H527.9L528.2 92.8L528.7 92.9V92.5L528.9 92.2V91.5L528.7 91.3L529.1 90.9H529.4L529.6 90.7L529.7 90.2L530.8 89.7L532 90.1L532.1 90.3V90.6L531.8 90.7L531.7 90.9L532.4 91V91.1L533.3 91.2H533.9L534.2 91.1V90.6L534 90.3V89.9L534.4 89.8L534.9 89.2L535.1 88.6L535.2 87.9L535.6 87.7L535.9 88L536.1 88.5L535.7 89.1L535.8 89.2L536.1 89.4L536.4 89.6H536.6L536.8 89.5L537.2 89.4L537.5 89.2L537.8 89.4L538.7 89.6L538.9 89.4L539.2 89.5L539.5 90.8L539.9 90.7L540.5 90.8L540.8 90.6L541.9 90.3L542.1 91V91.2L542.3 91.6L542.9 93.5L543 93.8L543.8 94.2L544.1 94.5L543.9 94.7L543.6 95.3L543.4 95.5V95.9L543.5 96L543.1 96.3L542.7 96.4L542.4 96.7L542.3 97.1V97.7H542.1V98L541.8 98.2V99.2L542.1 99.3L542.2 99.2L543 98.8V98.3L543.5 98.1L544.3 98.4L544.5 98.3H544.7L545.3 98.2H545.6L546.3 98.1L546.9 97.7H547.3L547.4 97.9L547.6 97.3L547.4 96.7V96.5L547.5 96.6L547.9 96L548.2 95.8L548.5 95.3H548.7V95L549.2 94.6L549.4 93.5L550.1 93.6V93.4H550.5L550.6 93.3H551L551.2 93.4L552.3 91.1L552.7 90.4L553.7 90.5L554.2 91.1L554.8 91.2L555.2 89.9H555.7L556 89.8L556.2 89.6L556.6 89.4L556.8 89.1H557.2L557.6 89H558.1L558.3 88.8L558.7 88.7L558.8 88.4L558.7 88.2L559.5 88.1L560.4 88L560.5 87.9L560.7 88.1L561 88.2L561.2 88.4L561.5 88.5L562.2 88.6L562.6 88.9V89.1L562.5 89.3L562.6 89.9L562.7 90.1H563.5L563.8 90L564.1 89.6L564.2 89.1L564.4 88.5H564.7L565 88.2L565.2 87.7H565.5L565.9 87.8L566.6 87.6L566.9 87.3H566.8L567.1 86.9L567.4 86.8L567.7 86.6L567.3 86.4L567 85.9L566.6 85.8L566.4 85.9L566 85.5L566.1 85.3L566.4 84.8L566.8 84.5L567.3 84.3V84L567.6 83.8H568.2L568.4 84L568.9 83.9L569.1 83.7H569.4L569.7 83.2V82.9L569.8 82.7L570 82.2L570.4 82.3L570.7 82.1L570.8 81.8L570.6 81.6L570.9 81.2L571 81L571.5 80.9L571.8 80.5L572.1 80.4L572.4 79.9L572.5 79.6L572.7 79.5L573 79.6L573.3 79.4H573.5L573.6 79.2L573.9 78.8V78.6H574.7L575.1 78.2L575.3 77.7H575.6V77.3L575.5 77.1L575.6 76.4L575.5 76.1L575.6 75.4L576 75V74.7L576.3 74.5L576.4 73.8L576.3 73.6L575.3 72.9V72.7L575.4 72.1L575.6 72L575.4 71.5L575.8 71.4L576 71.2L576.6 71.4L576.9 71.2L577.1 71.3H577.4L577.6 71.5L577.8 71.6L578 71.9L578.4 72.3L578.8 72.1L579 72.2H579.5L579.9 72.1H580.1L580.3 72H580.8L581.1 72.2L581.3 72.5L581.9 72.6L582.3 72.5L582.9 72.8L583.3 72.6L583.6 72.7L584.4 72.6L584.6 72.3H585.2L585.6 72.1H585.9L586.1 71.7L586 71.3L585.6 70.9L585.5 70.3L585.6 69.8L585.9 69.7L586 70L586.3 70.3L586.8 70.2L587.2 70.4L587.7 69.9L587.9 69.6L588.3 69.5H588.6L588.9 69.6H589.1V68.9L589.6 68.5L589.9 68L590.1 67.7L590 67.5L589.6 67.3L589.4 67L589.2 66.9L589 66.5H589.4L590 65.9H590.5L590.9 65.8L591.2 66L591.4 66.2L591.6 66.3L592.1 66.1L592.4 66.4L592.8 66.7L592.9 66.9L593 67H593.7L593.9 67.4L594.3 67.8H594.7L594.9 67.9L595 68.4L595.5 68.6H595.9L596.6 68.9L596.8 69.4L597.1 69.7L597.4 69.8H598L598.5 69.5H599H599.4L599.8 69.2H600.3L600.7 69.1L600.9 69L600.7 68.6V68.3L600.2 68L600.3 67.5L600.6 67.3H601.2L601.6 67.5L603 67.4L603.4 64.1L603.7 64L604 64.3L604.4 64.2L604.2 63.9L604.5 63.6L604.2 63.5L604.1 63.1V62.3L604.4 62.5L604.5 62L604.4 61.8L605.2 61.1L605.7 60.7L606.1 60.3L606.7 59.9L607.2 59.7L607.6 59.5L607.4 58.8L608.4 58.1L608.7 58L608.9 57.7L609.2 57H609.3L609.5 56.4L610 55.8L609.5 55.4L609.1 55.1L609 54.6L609.5 54.4L609.6 54.2L610.1 53.6L610.8 52.8L611.7 51.3V51.1L611.5 50.6L611.4 50.5L612.7 49.7L612.9 49.5L613.2 49.6L613.5 49.4V49.2L613.7 49L613.5 48.9L614.2 48.5L614.7 48V47.6L615.1 47.3L615 46.9L615.3 46.5V46.3L615.1 45.9L614.8 45.3L614.7 44.9L614.6 44.7V44.5L614.4 44.3L614 43.8L614.8 43.3L615 43.1L615.5 42.7L615.6 42.5L615.7 41.7L616 41.3V40.9L616.1 40.3L616 39.9L616.6 39.2V39.1L616.2 38.1L615.7 37.9V37.4L615.8 36.9L616 36.5V36.1V35.9L616.6 35.3L617.2 35L617.5 34.6L617.8 33.9L618.2 33.8L618.6 33.5L618.8 32.9L619.5 32.1L619.8 31.7L620.1 30.7L620.3 30.3L620.8 30L621 29.6L621.8 29.3L622.4 29.2L623.1 28.7L623.4 28.6L623.6 28.7L623.7 28.2L623.6 27.1L622.8 26.2L624.1 25.7L625.3 24.8L626.1 23.8L626.3 23.7L626.4 23.1L626.8 22.1V21.9L627.3 21.1H627.6L627.9 21L628.9 20.9L629.1 20.6L628.6 20.5L629 16.8V16.4L629.4 16V15.7L629.2 15.3L629.3 15.1L628.8 14.6L628.7 14.4L628.3 14.1L628.4 13.9L628.7 13.6L628.3 13.5L628.6 12.9L628.2 12.5L628.4 12.2L628.5 11.7L628.7 11.3L629 11.6L629.2 11.4L628.9 11L629.7 10.7H630.1L630.7 10.3L630.9 10.6L631.2 11.3L631.6 11.9L632.1 11.8L632.7 12.3L633.3 12.4L633.4 12L633.9 10.1L634.3 9.6L634.4 9.3L634.6 8.9L635.1 9.2L635.8 9.3L636.1 9.1L637.9 9.8L639 10.2L639.2 10.4L639.8 10.5L640.1 10.7H640.4V10H641.1L641.4 9.9L641.7 9.6H641.8L642.3 9.2L642.5 9.3L642.8 9.2L643.3 9.3L643.6 9.1L644 9H644.6L644.9 8.7L645 8.2L645.5 7.7L645.6 7.5L646.3 7.4L646.6 7.5L646.9 7.4H647.1L647.4 7.3L647.8 6.9L647.9 6.6L648.2 6.5L648.5 6.8L648.6 6.9L648.5 7.2L649 6.8L649.3 6L649.8 5.6L650 5.2L650.9 5.3L651.7 5.5L652.1 5.1L652.5 4.9L652.9 5L653.5 5.4L653.7 5.6L653.9 5.2L654.9 4.7L655.4 4.5L655.9 4.2L657.2 3.7L657.5 3.6V3.5L657.8 3.4L658 3.7L658.5 3.2L658.8 3.3L659.1 3.2L659.6 3.5H660L660.4 3.4V3.7L660.5 4.5H660.6V4.1H661.2L661.6 4L661.4 3.3L664.4 3L667.2 2.6L670.4 2.2L670.8 2.3L673.2 1.6V1.4H673.5L674.1 1.3L675 0.9L676.1 0.5L676.6 1.1L676.4 1.3L676 1.9L676.3 2.4L677 1.9L678.1 0.8L677.7 3.5L677.6 3.8L677.4 4L677.5 4.2L678 4H678.8V4.3L679.1 4.8L679.4 5.5L679.6 5.8L679.7 6H679.9L680.1 6.4L680 6.5L680.3 6.8L680.7 7.2L681 6.9L681.7 6.8L682 7.5L685.7 6.1L687.6 5.4L688.1 5.6H688.4V5.8L688.6 6.1L689.1 6.4L689.4 6.9V7.3L689.6 8.4L690.2 9.5V10.1L690.6 9.7L690.9 9.3L691.2 9.2V9.5L691.1 11L691.8 10.6L693.2 11.1L693.3 12.1L693.2 12.8L693.3 13.8L693.6 13.9L694.6 14L696.1 13.1L696.9 14.6L697.1 14.5L697.7 14.1L698 13.7L698.1 13.4L698 13L698.2 12.7L698.5 12.6L699.1 12.5H700.1L701.2 11.9L701.7 11.5L702.3 11.8L702.9 12.1L703.3 11.6L703.9 11.8L704.4 12.6L704.9 12.5L705.6 12.8L705.9 12.9L707.2 12.8L707.1 13L707.2 13.7L709 12.8L709.4 13.5L709.6 13.4L710 13.8L711.2 14.4H711.9L712.3 14.6L712.8 15L713.4 15.7L713.5 16.1L713.6 17.2L713.5 17.6L713.2 17.9L713 18.3L713.1 18.5L714 19.6L714.7 19.9L715.1 20.1H715.5L715.8 20.2L716.4 20.4L716.9 20.2H717.4L717.9 20.1L718.7 19.4L718.9 18.7L719.6 17.4L719.8 16.8L720 16.6L720.4 16.3L720.8 15.8V15.5L721.1 15.4V15.1L721.4 14.8L721.9 14.9L722.4 14.6V14.2L722.6 13.8H723L723.5 13.9L723.8 13.7H724.4L724.8 14.2L725.2 14.5L725.3 14.4L725.6 14.1L726.1 14L726.2 13.7L726.3 13.5L726.5 13.1L726.9 13.5L727.1 12.7L727.5 13.1L727.8 13L728.2 13.1L729 12.5H729.5L729.4 11.7L729.5 11.2L730.6 11.6L730.8 10.9L731.2 10.3L733 11.1V10.8L732.9 10.5V10L733.8 9.9L733.9 10L734.7 10.6L735 11L735.6 11.5L737.1 12.3L737.7 12.8L738.1 13L738.3 12.5L740.5 13.3L740.6 13.2L742 13.8L742.1 13.5H742.8L742.9 13.7L743.3 13.6L743.6 13.3L743.7 12.8L743.5 12.7L743.4 12.9L743 13.1L742.7 13L742.9 12.5L743.4 12.1L743.9 12L744.2 11.8L744.6 11.7L744.8 11.2L744.5 11.1L744.6 10.9L744.4 10.5L744 10.4L743.8 10L743.9 9.7H744.2L744.4 9.9L745 10L745.1 9.8L744.8 9.3V9L745 8.9H745.2L745.5 8.6L745.6 8.1L745.5 8L745.2 7.7L744.9 7.8H744.5L744.4 7.4L744.8 7H745L745.6 7.3H745.8L746.2 7L746.3 6.7V6.3H745.6L745 6.4L744.8 6.5L744.7 6.2L744.8 6L745.1 5.6L745.2 5.3L745.8 5L746.2 5.1L745.8 6L746.2 5.9L746.5 5.6L747.8 5.7L748.3 5.6V5.5L749.3 5.4H750.7L751.5 5.3L751.8 5.4L752.4 5.6H752.8L753 5.7L753.2 5.5L753.3 5.7L753.9 5.9L754.2 5.5L754.5 5.4L755.6 4.9L756.1 4.7H756.6L756.9 4.6L757.4 4.8L757.6 5L757.7 5.5L758.3 5.7L758.6 5.6L758.8 5.7L759.2 5.6L759.5 5.2L759.8 5L759.9 4.7V2.2L760.1 1.7V1.4L760.6 1.1L760.7 0.7L760.9 0.4H761.2L761.8 0.3L762.5 0L762.8 0.2L762.9 0.6L763.2 0.9L763.4 1L763.7 1.4V1.8L764 2L764.1 2.2L764.5 2.3H764.7L765.1 1.9V2.1L765.5 2.4L765.8 2.6L766.2 2.9L766.3 3.1L766.7 3.5L767 4.1L767.6 4.5L767.9 4.6L768.1 4.3L768.5 4.4L768.6 4.7L768.9 4.9L769.1 5.5L769.5 5.8L769.8 5.6L770.7 5.8V5.3L771 5.4L771.1 6.2L771.2 6.6H771.9L772.1 6.4L772.4 6.6L772.1 7L772.4 7.2L772.6 7L772.8 7.4H773.2L773.8 8.3L773.3 9.9L773.6 10.3L773.8 10.5L774.2 11L774.1 11.2L774.3 11.9L774.8 13.1L774.7 13.5L775 13.9L775.3 14L775.7 14.7L776.4 15.1H776.5L776.9 15.4L777.1 15.6L777 15.9L777.1 16.6L778.3 16.4L778.6 16.6L779.1 16.4L779.9 15.9L780.1 16.5L780.2 16.9L780.5 17.3L781.5 17.4H781.7L782.2 17.3L782.3 17.5L782.5 17.4L782.9 17L783 16.6L783.3 16.2L783.4 16L784.2 15.7V15.6H784.6L785 15.9L785.7 16.4L785.9 16.8H786.3L786.6 16.5L786.8 16.1L787.1 16.3V16.4H787.4V17.3L787.5 18.9H788.1L788.3 19.9L788.5 20.1V20.6L788.6 21.2L788.8 24.1L788.7 24.3L788.4 24.6L788.3 24.9L788.6 25.8L789.3 26.7L790 27.2L789.8 27.6L789.5 27.8L789.8 28.4L789.7 28.7L789.8 29L790.1 29.2L789.9 29.4L790.3 29.6L790.1 29.7L790.7 29.5L791.1 29.8L792.2 31.8L792.4 31.7V31.9H792.7V32.2H792.9V32.6L792.7 32.7V33H792.9L793.2 33.7L793.5 34.6L794 36.1L794.1 36.4L794.5 36.1L794.9 37.5L794.6 38.2L794.9 38.6L794.7 39.6L795 39.9L795.1 40.2V40.7L794.7 41.7L795 41.9V42.1L795.3 42.3H795.6L797.2 42H797.4V42.5L797.9 42.8L798.9 43.5L799.5 43.7L800.1 44.3L800.6 45V45.4L800.4 45.9L800.1 46.2L800.5 47.1V47.3H800.9L801.4 47.1L801.8 47.3L801.9 47.8L801.5 49.2L802.5 49.8L802.7 50L803 50.6L803.3 50.9L804 51L804.8 50.9L805.7 51.1L806 51L806.3 51.1L806.5 51.4L806.8 51.6H807.4L807.6 51.7L808.4 52.4L808.5 52.8L809 53.2L810.2 53.1L810.7 52.9H811L811.5 53.2L812.4 52.9L812.8 52.7L813.2 52.8L813.8 52.4L814.2 52.7L814.5 52.8L814.6 53.1L814.9 53.3L815.1 53.4L815.4 53.1L815.8 53.4L815.9 53.3L816.1 53.5L816.3 53.4L816.4 53.6H816.7V53.9L816.5 54.4L816.6 54.5L816.9 54.3L817.3 54.5L817.7 54.2H818.9L819.1 54.1V53.6L818.8 53.4L818.9 52.9L819.4 52.6V52.3L819.1 51.6L819.4 51.1L819.5 50.4L819.3 49.9L819.2 49.1L819.1 48.4L819.3 48L819.8 47.8H820.6L820.7 47.7L821.5 47.5L821.7 47.3H822L822.4 47.8L822.6 48.1L822.7 49.2L822.8 49.5L823.1 49.7L823.5 49.5L823.2 48.9L823.4 48.6L823.9 48.8L824.2 49.3L824.4 49.5L824.8 49.6L825 49.4L824.7 48.9V48.6L824.9 48.4L825.6 48.1L825.9 48.2V48.4L825.8 49V49.4L826.2 49.5L826.6 49.2L826.7 48.8L826.6 48.6L826.2 48.3L826 47.9V47.4L826.3 46.9L826.6 46.7H827.1L827.2 46.9L826.7 47.4L826.6 47.7L826.8 47.9H827.3L827.7 48.1H828L828.3 48L828.4 47.8L828 46.9L828.1 46.5L828.4 46.4L828.5 46.8V47.1V47.5H828.9L829.2 47.2L829.8 46.9L830.1 46.6L830.2 46.7L830 47.1L830.2 47.2L830.5 47.3L830.7 47.5L830.9 47.9L831.5 47.8L832.2 48.3H832.4L832.8 48.2L833 47.8L832.9 47.4L832.4 47L832.2 46.6L832.3 46.2H832.4L832.9 46.5H833.3L833.9 46L834 45.8V45.5H834.2L834.9 45.4H835L835.3 44.8L835.4 44.6L835.9 44.4H836.5L836.9 44.9L837.1 45L837.2 44.4L838.1 44.3L838.2 44.5L838.6 44.3L838.8 44.6L839.2 44.8L839.6 44.6L840.1 44.4L840.2 44.6L840.3 44.4L840.7 45.2H840.8V44.8L841.2 44.5L841.5 44.4L841.6 44.7L841.9 44.9L842.1 44.7L842.4 44.6L842.8 44.2L843.1 44.1L843.2 44L843.7 44.1L843.9 43.8V43.5H844.2L844.3 43.3L844.8 43.2L845.3 42.9L845.5 42.4L846 42.5L846.1 42.2L845.7 42L845.8 41.6H846.5L846.8 41.7L847.5 42.7L847.9 43L848 42.9L849.2 43.5L850.5 44.9L851.1 44.8L851 44.1L851.3 44L851.5 43.7L852.1 43.8L852.3 43.9H852.7L853 43.7V44L853.1 43.9L853 43.5L853.1 43.2L853.7 42.8L854.1 43.4L854.3 43.6L854.8 44.2L854.5 44.6L854.8 44.9L854.7 45L855 46.1H855.2L855.5 45.7L855.7 45.6L856.1 44.7L856.3 44.9H856.6L856.8 45.1L857.2 45.2L857.7 44.9L858.3 44.2L858.7 44.1L859.4 44.2L859.7 44.5L860.1 44.7L860.4 44.3L860.8 44.2L861.1 44.1L861.8 44.2H862.2L862.3 43.7L862.2 43.4L861.6 42.5L861.4 42.2V42L861.6 41.8L862.1 41.6L863 41.5L863.7 41.3L864.5 40.9L864.8 40.6L865 40.2L864.9 39.3L865 38.3L865.1 38L865.4 37.8L866.1 37.4L866.9 37.1H868.2L868.9 36.9L869.7 36.4L870.7 35.5L871.6 34.8L872.4 34.5H873.1L873.6 34.7L873.8 34.9L874.2 35.7L875.2 37L875.9 37.5L876.7 37.9H877.2L878.6 37.7L879.9 37.6L880.4 37.7L880.7 37.9L880.8 38.1L880.6 39.1L879.5 41.4L879.1 41.8L878.6 42.1L877.6 42.3L877.2 42.5L877.1 42.8L877.2 43.2L878.4 43.8L879 44.6L879.5 45.8L880.2 47.1L881 48.4L884.9 49.3L885.4 49.8L886.3 49.9L888.2 49.8V50.3L888.5 50.6V50.9L888.2 51.7V52L888.6 53.2L887.8 55.4L887.5 55.7L887.6 56.2L887.8 56.5L888.3 56.6L888.5 56.8V57.1L888.3 57.3L888.5 57.5L888.3 57.9L888.7 58.1V58.5H889L889.1 58.8H889.7L889.9 59L889.7 59.2L890.1 59.4L890.2 59.6L891 59.9V60.5L891.2 60.8L891.1 61.3L891.4 62.5L891 63.2L891.1 63.4L890.9 63.6L891.5 65.3L891.2 66L892.8 67.7L893 67.6L894.3 69L895.1 71V71.5L895.3 72L895.8 73.1L895.6 73.4L897.8 75.8L898 74.9L898.2 74.7L899.2 74.2L899.5 73.3L900.1 72.5L902.8 72.2V72.6L904.7 73L904.3 72.1L904.7 71.8L905.2 72.3H905.8L906.6 73.2L906.8 73.7L907 73.6L907.4 73.8L907.5 73.6L907.9 73.7L908.1 74L908.9 73.5L909.2 73.4L909.4 73.5L910 72.9L909.9 72.6L910 72.3L910.2 72.8L911 72.4H911.5L911.9 72L912.3 71.9L912.6 71.7V71.6H912.9V71.7L914.5 72.5L914.1 73L914.8 73.3L914.7 73.6L913.9 74.6H914.7L916.6 74.9V75.6V75.9L916.2 76.7L916.1 77.2L916.3 77.5L917.4 78.7L917.7 79.1V79.5L918.2 79.9L918.6 80.4L918.8 81L919.5 80.8L920.6 81.3L921.6 82.3L922.5 83.4L924.5 83.9L924.6 85.1L924.1 86.4H923.2L923.1 87L923.8 87.5L923.6 88L923.8 88.1L923.9 88.9L924.2 89.1L924.6 90.1L924.9 90.8L925.1 91.8L925.5 92.1L926.3 91.9L926.6 92.9L927.1 93.6L927.5 93.4L928.4 94.9L928.2 95.2L927.5 95.3L927.1 95.5L926.9 96L928 97L927.9 97.4L927.6 97.6V99.6L928.1 100.2L928.6 100.9L927.8 101.4L927.6 101.7L927.4 102.2L927.2 103L927.5 102.9H927.9L928.3 103.1L928.7 103.5L929 103.7L930 103.8H930.6L931.4 103.3V103.7L931.7 103.6H932L932.2 103.8L932.7 104.5L933.2 105L933.7 105.4H935L935.7 105.6H936.1L936.5 105.5L936.8 105.4L937.1 105.6L937.6 106L937.9 106.1L938.3 106.2H939.4L939.8 106.1L940 105.9L940.7 105L941.1 104.6L941.7 104.4L942.9 103.5L943.2 103.2L943.6 102.5L943.9 102.3H944.5L944.9 102.2L945.5 101.8L945.9 101.2H946.3L947 101.4L947.4 101.2L947.6 100.6L947.9 100.3H948.3L949 100.7H949.3L949.6 100.6L950.1 100.3L950.4 100.1H950.9L951.2 100.2L951.4 100.5L951.6 101.6L951.9 102L952.2 102.4L952.7 102.6L953.3 102.5L953.9 102.2L954.1 102.1V101.8L953.7 101.3L953.2 101L953 100.8V100.2L953.3 99.8H953.7L954.2 99.9L954.9 100.5L955.6 100.9H956.1L956.3 100.8L956.6 100.5L957 99.8H957.3L957.7 99.9L958.1 100L958.2 100.2V100.6L958.1 101.1L957.8 101.5L957.5 102.2V102.9L957.6 103.1L957.9 103.2L958.3 103.1L958.7 102.9L958.8 101.9L959.2 101L959.4 100.6L959.7 100.5H960.2L960.7 100.8L961.1 101.2L961.3 101.5L961.6 102L961.8 102.5V102.9L961.7 103.3L961.3 104V104.6L961.4 105.1L961.3 105.3L961.6 105.9H962.1V106.2V106.9L962.2 107.3L962.5 107.6L962.8 107.7V107.9L962.5 108L962.4 108.3L962.5 108.8L963 109L963.3 108.8L963.5 108.2L963.8 108L964.2 108.1L964.5 108.8L964.7 109L965.1 109.1L965.5 109.4L965.6 109.9L966 110L965.8 110.3V110.5L966 110.7L966.1 110.8L965.7 111.1V111.3L966 111.4L966.1 111.5L965.8 111.7L965.9 112L966.2 112.2V112.5L966.3 112.7V113H966.1L966.2 113.2L966.3 113.1L966.5 113.3L966 113.5V113.6L966.3 113.9L966.4 114.1L966.6 114.2L966.9 114.7L967.2 114.9L967.8 114.8L967.6 114.6L967.7 114.4L967.6 114.1L967.9 113.9L968 114.2L968.3 114.3L968.9 114.2L969 114.5L968.9 116.4L968.8 116.7V118.2L968.4 118.8L968.1 119.6L967.9 120.1L967.7 120.3V120.7L967.3 120.9L967 121.1L966.7 121.2L966.6 121.5V122.9L966.7 123.3L966.5 123.5L965.7 123.9L965.4 124.1L964.7 125L964.6 125.3L964.4 125.4H964.1L963.6 126.3L963.3 126.7L963.1 127.1L962.5 128L962.8 128.1L962.9 128.4L963.4 128.5L963.3 128.9L963.6 129.2L963.1 129.5L963 129.9L963.2 130L963.4 129.8L963.8 129.7H964L964.4 129.9L964.6 129.8L964.9 130.2L965.2 130.1V130.4L965.4 130.5L965.7 130.3L965.9 130.5L965.7 130.7L965.6 130.9H965.9L966.2 130.6L966.3 130.8L966.1 131.5H966.2L966.3 131.3L966.7 131.4H967L966.8 131.1V130.9L967 130.8L967.3 131V131.2L967.7 131.3L967.8 131.6L967.5 131.8L967.7 132.3L967.4 132.6H967.1L967 132.7L967.2 133.2L967.4 133.1L967.5 132.8L967.7 132.6L967.8 133L967.9 133.2L968.1 132.8L968.4 132.7L968.5 133.1L968.4 133.5L968.6 133.8L969.2 133.4L969.5 133L969.7 133.3L970 133.1L970.3 133H970.6L970.5 133.5L970.6 133.7L970.5 134L970.2 134.1L970.1 134.2H970.5V134.4L970.3 134.8L970.5 135.2L971 135.1L971.1 135.2L970.8 135.6H971.1L971.2 135.8H971L971.1 136L970.8 136.2L970.7 136.1L970.3 135.9L969.6 136.3L969.5 136.8V137.5L969.4 137.9L968.6 138.1L967.7 139.6V140.4L967.1 140.8L966.8 141.2L966.7 142.1L965.4 143.1V143.8L964 145.7H962.9L961.9 145.5L961 145.7L960.6 145.9L960.3 146.4L959.9 146.5L959.6 146.8L959.3 147.2L958.9 147.3L958.1 147.7L958 148L957.5 148.2L956.6 148.8L956.2 149.3L954.8 148.7L953 148.9L952.7 148.8L952.5 148.5H952.3L952.1 148.8H951.9L951.8 148.5L951.6 148.4L951.2 148.7L951.3 148.9L951.1 149.1L951 149.4L951.4 149.9L951.3 150.4L952.8 152L951.9 154.3V154.8L952.3 155L953.5 155.1L953.3 156L953.8 156.2V157L954.1 158V159.6L952.4 159.7L950.9 161.4H949.9L949 161.3L948.5 160.9H948L947.7 161.1H947.2L947 160.8L946.4 160.5L945.6 160.6L944.9 161L944.5 161.4L944.3 163.6L943.6 163.7L943.5 164.4L943.2 164.3L942.8 164.9L943.1 165.3L942.3 167L941.1 169.7L940.6 170.7L940.3 170.8L940.1 171.3L938.9 171.2L938.1 171.4L937.5 172.4L935.4 173.1H934.7L933.8 172.7L932.3 173.7L930.9 173.5L930.2 174.7L921.3 174.6L920 172.5L914 168.3L912.6 167.4L911.6 166.3L909.6 167.6L907.3 167.9L906.4 169L905.8 170.4L905 175.1L904.4 177.2L903.9 178.3L903.7 179.3L904.1 179.4L904 179.8L904.4 180.4L904.5 181.5L901.5 181V180L900.4 180.1L899.5 179.8L898.6 180.6L896.7 179.9L895.7 180L895 179.7L893.8 179.6L891.5 177.7L890.8 176.7L890.2 176.2L889.2 175.8L888.2 175.9L888.7 178.4L888.2 180.7L886.6 181.2L886.1 182.2L885.5 182.1L885.2 182.5L885.1 182.4L883.5 183.7L880.6 183.3L879.8 186.3H880.3L879.8 190.4H879.4L879.3 190.8L879.1 191L877.2 190.9L875.7 191.4L875.1 192.5L874.6 193.6L875 194L874.6 195.6L874.7 196.6L874.2 197.6L874.5 198L874.3 198.4L873.7 198.8L873 199.7L871.8 199.5L871.2 203.5L870.9 203.8L870.6 204.6L870.4 205.4L870.3 206.6L869.9 208L870 208.3L869.9 208.7L869.7 209.2L869.3 209.5L869.2 209.6L868.9 209.9L868.6 211.4H868.3L868.1 211.8L868 212.4H867.8L867.6 212.8L867.3 212.9L867 213L866.5 212.8H865.6L865.1 212.6L864.4 212.5L863.6 212.3L862.7 211.6H861.4H861.1L861.2 211.8L861.3 212.3L861.1 212.9L861.2 213.5L861.1 213.7L860.7 213.8L860.2 214.5L860.1 215L859.8 215.7L859.3 216L859.2 216.3L858.9 216.6L858.6 216.5L858.2 216.8L857.7 217L857.6 217.3L857.4 218.3L857.1 218.8L856.6 219.5L856.1 220.1L855.7 220.2L855.4 219.8L855.1 219.5L854.5 219.4L854.1 219.2L853.4 219.5L853.2 220L853 220.3L852.5 220.6L852.2 220.8L851.8 221L851 221.6L850.9 221.8L850.6 222.1L850.5 222.5L852.9 224.3L851.6 226.3L849.2 224L848 225.5L847.7 226.4L847.2 227.1L845.6 229.2L845.1 231.4L844.6 232L844.5 232.3V232.7L844.3 234.4L843.7 235.9L843.8 237.6L844.6 238.8V239.5L845.1 240.6L845.7 242.1L847.4 242.8L846.8 244.2L846.4 244.6L846.6 245L846.7 245.6L847.1 246L847.8 247.8L847.3 248L847.6 248.5L847 248.8L847.5 249.7L847.7 250.2L847.8 250.8L846.3 254.6L846.2 255L845.9 255.8L845.5 256.2L844.9 257.4L844.7 258.1L844.6 258.2L844.4 258.7L843.9 258.4L842.8 258.5L842.2 258.2V257.8L842 257.6L841.3 257.5L841.2 257.6L840.8 257.5L840.6 257.8L839.2 258.2V257.8L838.2 257.7L837.2 257.6V257.8L836.8 258.3L836.1 258.9L835.7 259L835.6 258.8H834.9L833.9 259.3V259.6L834 260L834.1 260.4L833.8 260.7L833.5 261.7L833.4 262L832.7 262.8L832 263.4L831.8 264.2L831.7 265.1V265.4L831.6 265.5L831.5 266L831.4 266.1L831.1 266.8L830.7 267.2L830.3 267.9L829.9 268.4L829.6 268.6L829.5 269.2L829.3 269.4L829.1 269.9L828.7 270.3L828.4 270.8L827.9 271.3L827.7 271.6L827.4 273.4L826.7 275.8L826.4 276.1L826.2 276.6L826.4 276.9V277L825.8 277.1L825.4 277.4L825.3 277.8L825.4 278.2L825.7 278.6L826.3 279.1L826.7 279.4L826.4 279.9L826.7 280.6L826.5 280.9L825.7 281.8L825.5 282.1H825L824.8 282.3L824.4 282.4L823.6 283.5L823.4 283.8L823.3 284.7L823.1 285.1L822.7 285.5L822.4 286.1V286.3V286.6L821.5 287.5L821.2 289.4L821.1 289.5L820.8 290.8L821 291.2L821.8 291.4V291.5L822.4 291.6L822.6 293.6V294.3L822.7 295.1L822.5 297.1L822.4 298.5H822.2L821.7 298.8L820.9 299.1L819.6 300.6H819.2L818.5 300.3L818.3 301.1L817.8 301.3L817.7 301.4L817.3 301.3L816.9 301.6L816.6 301.5L815.9 303.1L815.8 303L814.6 307.1L814.1 309L814.5 309.2L814.3 309.8L814.1 310.4L813.9 311L813.6 310.9L813.1 311.4L812.9 311.8L812.8 312.1L813 312.7L812.5 313.4L812.9 313.6L812.5 314.1L813 314.5L812.8 314.9L813 315.2V315.5L812.8 315.6L811.7 315.3L811 315.2L810.2 315L809.8 315.1H809.4L808.7 315.3L807.6 315.7H807.2L807.1 315.8L803.5 317.2L803.2 317.8V318.1L802.8 318.4L802.4 319L802.3 319.4L801.6 320.5V321L801.8 321.2L802.1 322.1L801 322.9L800.7 322.7L800.5 322.8L800.7 323.2L800 323.5L800.4 324.6L799.1 325.2L799.4 325.7L798.1 326.2L798.3 326.6L797.6 326.9L797.4 327.1V327.3L797.3 328.3L797 328.5L796.6 328.3L796.4 328.5L796.1 328.4L796 328.5L795.2 328.6L794.7 328.8L794.4 329.1H794.1L793.5 329.3H792.7L792.4 329.4L792.5 330.2L792.6 330.8L792.9 331.3L793 331.4L793.3 331.9L794.2 333.5L794.5 333.6L796.6 334V334.6L796.7 335.3L797.1 336.6L797.3 337L798.1 337.2L798.2 337.5L798 338H797.5L797.3 338.2L796.8 338.3L796.3 339.4L796.6 340.2L796.4 340.8L795.9 341.4V341.7L795.5 342L795.6 342.7L795.3 343.6L795.2 344.1L795.6 344.2L796.4 344.3L797.2 344.8L797.1 345.2L796.7 346.2L796.3 346.5L796.2 347L795.9 347.6L794.7 347.3H794.5L794.1 347.1H793.8V347.3L793.4 348L793.5 348.4L792.8 348.8L792.6 349.3V349.6L792.3 350L791.3 350.7L790.9 351.9L786.3 352L786 352.1L785.3 353.1L785.2 353.8L785.1 354.2V355.1L785.4 355.5L785.3 356.9L785.4 357L785.5 357.5L785.6 357.7L785.8 358L786.5 357.9V358.4L786.9 360.1L787.2 360.3L787.4 361.3L787.5 361.7L786.3 361.8L786 362L785.6 363.3L785.9 365.4L785.6 366L785.1 366.2V366.7L785 366.9L784.8 367.1H784.1H783.7L783.2 367.3L782.8 367.6L782.7 367.7L782 367.8L781.5 368L781.2 368.2L781 368.5H780H779.7H779.3L778.7 369.1L778 369.6H777.7L777.5 369.8L776.6 369.9L776.5 370.6L776.1 371.5L775.7 371.6L775.2 371.5H774.8L774.4 371.6L774.3 371.8L774 372L773.9 372.3L774 372.8L773.9 373.5L774.1 374L773.8 374.8L773.9 375.4L774.2 375.6L774.1 376.2L774.3 376.6V377L774.1 377.3L774.3 377.5V378L773.9 378.7V379L773.8 379.4V379.8L773.1 380.7L773.3 381.1L773.2 381.3L772.8 381.9L772.7 382.4L772.6 383L772.3 383.4L770.7 384.6L770.2 385L769.7 384.8L768.9 387.1L768.7 387.2L769 388.1V388.5L770.2 388.7L770.3 388.8L771.5 389.9L772.8 391.2L774.9 392.5L775.1 392.9V393.4L775.5 395V395.7L775.3 396.3L774.6 397.1L774.1 397.7L773.6 397.9L773.3 398.2H772.8V399H772.9L772.4 399.4L772.2 399.7L772.5 400.4L772.2 400.6V401.1L772 401.2L771.5 401.3L770.9 401.9L770.7 402.5L770.5 403.2L770.3 403.4L770 403.6H769.7L769.3 403.1L768.9 402.5L768.6 402.3L768.4 402.4L768.1 402.3L767.9 401.9H767.5L767.3 401.6H767.2L766.9 401.8L766.8 401.6L765.2 402.5L764.1 403.1L761.7 401.6L761.1 402V402.2L760.8 402.8L760.9 403.2V403.6L761.3 404.4L761.1 404.8L761.2 405.2L761.7 405.7L761.9 406.1L762.2 406.8L762.6 407.1L762.9 407.6L763.2 407.8H763.5L764 407.6H764.4L764.8 407.5L764.6 408.9L764.2 409.1L763.9 409.4L763.3 410.2L762.8 410.8L762.6 410.9L761.5 411.5L759.9 411.8L759.2 412.7L759.1 413.3L758.9 413.9L758.8 414.1V414.7L758.5 416.2L758.2 417L754.2 415.6L754 415.4L753.8 414.7L753.7 414.6L751.9 413.6L750.1 415.2H750L749.4 415.1L749.3 415L748.1 415.3L747.5 415.5L746.8 415L746 415.7L745.2 416.9L744.5 417.9V418.3L743.9 419.9L743.7 420.3L743.5 421.2V421.8L743 422.6L742.7 423.4L743.5 424.4L743.7 424.1L744.5 424.8L744.8 424.5L745.5 425.1L744.8 426.2L744.6 426.7L743.6 428.2L743.2 428.6L743 429L743.2 429.7L742.1 431.2L741.6 431.5L741.3 432.5L741 433.1L739.7 433L738.8 433.9L739.1 435.1L738.4 437L737.5 440L737 441.4L736.8 441.9L737.2 442.9L738.2 445.1L738.6 445.8L738.8 447.2L740.2 447.1L741.3 447.3H742L743.3 449.7L745 452.6H744.8L744.4 452.9L744.1 454.9L743 456.4L741.9 458.3L741.6 459.5L741 459.9V460.3L741.4 461L742 461.7L740.1 462.4L739 461.7L736.6 461.3L735 460.9L733.9 461L731.8 460.3L731.3 460.7L730.9 460.8L730.5 462.7L729.1 462.4L727.7 469.2L727.8 469.4L728.1 473.9L726.8 475.7L724.8 476.5L725.2 477.6L724.7 477.7L725 479L724.8 479.5L724.3 480L725.4 483L724.7 483.3L724.5 483.8L724 484.3H723.6L722.9 484.2H721.7L721.3 484.4L720.7 484.1L720.4 482.9L717.1 483.7L716.1 483.5L715.7 485L715.6 485.9L715.4 486.7L715.2 488.4L714.7 489.9L714.3 491.6H714.1L714 491.3L713.8 491.4L713.5 491.6L713 491.7L712.9 492L712.6 492.2V492.5H712.3L712.1 492.3L712 492.5L712.1 492.8L711.9 493.2H711.7L711.4 492.8L711.2 493L710.9 493.8L709.7 493.4L709 495.7L708.2 495.3L705.4 494.6H704.8L703.7 492L703.1 490.8L701.8 491.5L701.2 491.6L699.8 492L698.2 492.3L696.8 492.1L695.3 492L693.9 491.7L692.8 491.1L692.5 490.5L692.3 489.7L691.9 488.2L688.8 488.7L688.4 491.8L685.6 490.5L683.8 489.8L683.5 489.1L681.4 486.4L677.2 487.5L675.6 487.9L671.8 488.7L669.4 489.4L668.5 489.3L667.4 488.9L663.6 494.1L665.5 503.6L660.5 503L660.7 503.5L660.3 505.3L661 505.6L661.3 505.8L661.5 505.9L661.3 506.3L660.8 506.7L660.5 506.9H660.3L660.2 507.2H659.8L659.3 509.2L658.9 510.9L658.7 511.4L658.4 511.7L658 511.8L657.8 511.9L657.7 512.2L657.4 512.4V512.7H657.2L656.2 512.9L655.9 513.1L655.7 513.5V513.9L655.5 514.9L655 515.3L654.7 515.8L654.3 516H653.9L653.1 515.7L652.9 515.5L652.7 515.1L652.5 515L652.1 514.9L651.4 514.7L650.8 514.8L650 515.2L649.8 515.3L649.4 516.1V516.6L649.3 517L649.4 517.4V518L648.9 518.7L648.6 519.1L648.4 519.3L648.1 519.6L647.9 519.7L647.3 519.8L647 519.7L646.2 519V518.7L646 518.6L645.8 518.2L645.7 517.8L645.5 517.5L645.2 517.4L645 517.1L644.5 516.8L644.2 516.5L644 516.1L643.7 515.7L643.1 515.4H642.8L642.4 515.1H641.9L641.6 514.7L641.4 514.4L640.9 514.3L640.7 514L640.3 513.7L639.8 513.4L639.4 513.2L638.3 512.3L637.9 511.8L637.3 511.5L636.9 510.8L636.2 510.5L635.7 510.4L635.3 509.8L635 509.3L634.7 509.2L634.3 508.9L633.7 508.8H633.3L633.1 508.6H632.6L632.2 508.5H631.6L631 508.3L630.3 507.9L629.9 507.6L629.2 507.2L628.4 506.7H628.2L628 507L627.5 506.9L627.3 507.2V507.5L627.5 507.7L627.7 507.6L627.6 507.9L627.2 508.2L626.8 508.5L627.1 508.7V508.8L627.4 509.1L627.5 509.2L627 510L627.3 510.4L627 510.9L624.6 513.6L624.1 514.4L622.1 516.4L620.1 516.6L617.4 515.9L615.1 514.7L614.2 514.1L614 513.8L613.3 513.4L612.8 514.4L611.7 513.8L610.9 513.3H610.4L609.4 514.2L609.1 514.3L608.8 513.9L607.3 510.8L601.1 514.9L600.6 513.6L599.2 514.5L598.9 514.4L596.9 516.6L596.2 517.8L595.8 518.3H595.6L595.4 518.6L595.3 518.5L595.1 519.6H594.8L594.2 519.8L593.9 520.1L592.9 522L592.5 521.7L592.4 521.4L592.1 521.1L592.2 520.8L592.1 520.4L592.4 520V519.8L592.2 519.5L591.9 519.1L589.8 520.3L589.3 519.2L586.5 517.9L586.2 516.2L583.7 514L582.4 512.8L582.1 513.4L580.6 514.3L577.4 516L576 516.1L575.9 516L576 515.5L575.7 515.4L575.3 514.9L574.5 514.4V514.5L572.9 513.3L571.7 512.3L571.4 511.8L571.2 510.4L571.6 510.1V509.8L571.2 509.5L570.8 509.3L570.3 509.4L570.1 509.3L569.6 509.9L568.3 511.8L568 512.2L567 513.5L566.6 514.3L566.2 514.8L565.6 516L565.5 516.2L565.3 515.7L565.2 515.6L564.9 515.4H564.3L563.4 515.8L562.6 516L562 516.1L561.7 516L561.3 515.8L561.1 515.6L560.9 515.2L560.7 514.6L560.5 514L560.2 512.8L560.1 511.9L560 511.3L559.8 510.7L559.7 510.1H559.6L558.6 509.4H558.5L556.6 509.5L554.7 509.6L552.4 509.5L551.4 509.6H550.4L548.5 509.5H547.1L546.1 510.6L545.2 511.4L544.2 512L543.5 512.2L542.8 512.5L541.7 512.9L539.5 514L538.2 514.6L536.7 514.9H535.5L535.3 515L534.8 515.8L534.1 516.7L530.9 519L530.3 519.5L529.8 519L529.5 518.8L528.9 518.6L528.6 518.4L528 518L527.7 517.7L527.3 517.1H527.1L526.9 517L526.5 517.1L525.9 516.7L525.3 516.2L524.9 516L524.2 516.2L523.7 516.1L523.2 515.9L522.8 515.7L522.2 515.6L521.8 515.4L521.6 515.1L521 514.4L520.6 513.7L520.4 513.6L519.8 512.8L519.3 511.7L518.3 510.8H518.1L517.8 511L517.3 511.2L517 510.9H516.5L516 510.4L515.9 510.1L516 509.9V509.5L514.7 508.5L513.9 507.9L513.4 507.2L513.2 507.1L512.9 507.2L511.7 508.2L511.5 508.3V508.7L510.9 508.8L510.3 508.4L510.1 508.3L510 508.1L509.6 507.9L509.4 507.6L509.2 507.4L509.1 507.9L508.8 507.7L508.4 507.3L508.3 506.8L507.9 506.6L503.6 510.9L500.3 510.2L500 510.3L499.9 510.1L494.5 509L493.8 509.3L494 509.6L493.4 510L493.8 510.8L493.2 511.2L493.4 511.5L489.7 514.5H489.6L489.1 514.9L488.6 515.4L487.2 514.6L486.7 515V515.1L485.1 516.5L486.1 517.5L485.9 518.1V518.3L487.7 520L488.7 520.9L488 521.5L486.1 523L484.2 523.8L483.3 524.3L482.8 524.5L482.6 524.3L482.2 524.2L482 524.9L481.5 525.1L480.7 525.7L480.6 525.9L479.7 526.2L480.1 527.5L480 529L478.8 529.9L477.5 530.9L476.3 531.9L476 532.2L475.2 533L473.8 534.5L472.7 536.4L471.7 536.7L469.8 537.2L467.6 538.5L466.1 536L465.3 535.1L453.5 542.9L454 543.7L456.5 547.6L455.7 548.4L454.1 546.5L449.6 546.7L447.1 546.9L446.5 546L444.4 546.1H442.8L441.8 546.2L442.5 547.4L436.9 547V546.7H434.4L434.1 545.6L434.3 544.2L433.9 543.3L433.1 540.1L432.3 538.2L429.5 538L428.2 537.6L427.7 538.6L426.1 541L425.1 542.4L424.1 543.8L423.7 544.5L422.6 545.9L423.6 549.5L424.1 551.5L424.6 553.4H424H423.5L422.5 553.3H422.3L421.5 553.1L421.1 553L419.6 553.1L417.9 553.2L415.9 553.5L415.3 553.7L414 554.4L412.9 557L414 560.4L414.5 561.7L412.4 561.5L411.6 560.2L411.5 559.8L408.9 560.7L407.8 561.1L407.3 561L405.3 560.7L403.8 560.1L399.7 559.2L399.4 559.6L398.5 560.7L397.6 561.7L397.5 562H397.3L396.8 562.3L396.4 562.7L395.9 563.1L395.6 563.2H395.2L394.8 563.1L394.3 562.8L394 562.5L393.8 562.2L393.9 563L394.3 564.1L388.5 565.5L388.3 564.7L388.1 564.3L387.7 563.5L386.6 564.7L385.6 565.8L386.2 566.9L386.3 567.2L386.4 568.3L386.1 570.1L385.9 570.7H385.8L385 570.8L383.3 571L382.9 570.8L382.5 570.6L382.1 570.2L381.8 569.7L381.1 569.2L380.4 568.8L379.9 568.6H379.6L378.9 568.8L378.8 568.5L378.9 567.9L378.5 567.4L378.4 567.1H378.1L377.6 567L377.4 566.7V566.4L377.2 566.5L376.5 566.4L375.7 566.3L373.4 565.4L372.7 564.9L371.7 563.9L371.3 563.4L370.9 562.7L369.3 563L366.8 563.4L365.9 564.3L365.7 564.1L365.1 563.4L364.9 563H364.5V564.5V565.5H364.6L364.8 566.3L365.2 566.6H364.8V567.2H364.7V567.4H364.2L363.9 567.5L363.8 567.4L363.4 567.6L362.9 568.1H362.5L361.8 568.7L361.9 569.7L362.4 570L362.8 570.5V570.6L363.8 571.8L363.7 571.9L363 572L362.8 572.2L361.3 573L360.5 571.2L360.3 571.7L359.9 571.9L359.8 573.3L359.7 574.1L359.6 574.8L359.5 575.1L359.3 575.6V575.9L358.3 576.1H358.1L359.3 578.8L358.2 579.3L356.1 580.1V580.2L356.4 581.3L356.1 581.7L355.3 582.6L353.8 583.6L352.3 584L352.1 584.2L352.2 584.8L352.3 586.9L350.2 586.3L349.6 588.1L349.4 588.2H348.9L348.5 588.3L348.2 588H348L347.7 588.1L347.2 588.4H346.5L346.3 588.3L345.2 589.2L344.7 589.5L344.8 590.1V590.6L344.3 590H344L343.1 590.1L342.3 589.4L342.4 588.6L341.9 588.2L341.3 587.9L340.8 588.2L340.3 588.1L340.1 588.3V588.7L339.8 589.4L339.6 589.8V590.2L339.5 590.8L339.4 591.4L339.1 591.9V592.5V594.1L338.9 593.9H336.4L335.4 593.3L335 593.7L333.8 595.1L334.3 595.6L334.2 597.5L334.4 598V598.3L334.2 598.9L334 599.9L333.6 599.7H332.6L331.9 599.4L331.2 599V599.2L330.7 599.3L330.3 599.1H330L329.4 599.2L329.1 599.4L328.8 599.6L328.4 599.4L327.9 598.9L327.4 598.7V598.4H327L326.9 597.4L327.2 597.2V596.9L327.3 596.6V596.2L327.1 596.3L326.9 596.6L326.7 596.2L326.6 596L326.4 595.7H326.2V595L326.1 594.9L325.8 594.8L325.4 594.3L325.2 594.2L325.1 594.4H324.7L324.5 594.5L324.4 594.2L323.6 593.6L323.1 593.3L323 593.2L322.2 592.6L322.5 593.8L322.4 594.1L321.9 594H321.8L321.3 593.7L321.1 593.8V594.4L320.9 594.3L320.4 595V595.1L320.1 595.5L319.9 595.9L319.6 596.2L319.5 596.9L319.4 597.3L319 597.7L318.6 597.9H318.4V597.2L318.3 597L318 596.6L317.8 596.4L317.5 596.3H317.1L316.1 596.2L315.7 596H315.3H314.8H314.4L313.6 595.7L313.3 595.4L312.9 595.1L312.5 595H311.9L311.5 595.2L311.1 595.4L310.7 595.8L309.5 596.1L309.4 595.9L308.5 595.5L307.8 595.1L307.4 595L306.5 594.8H305.8L305 595L304.7 594.7L304.3 594L303.9 593.5L303.8 593.1L303.6 592L303.4 591.6L302.8 591.2L302.1 591H301.2L300.4 590.8H299.4L299.1 590.7L298.7 590.4L298.5 590L298.2 589.9L297.8 589.6L297.4 589.5L297.1 589.6L296.5 589.8L296 590.5L295.2 591.2L295 591.6L294.7 591.9H294.1L293.2 591.3L292.9 591L292.5 590.3L292.4 590L291.9 589.7L291.2 589.4L290.7 589.3L290.2 589.6L289.9 589.8L289.4 589.9L288.7 590.2H287.2L286.8 590.4L286.3 591.6L286.2 591.7L285.8 592.5L285.3 593L284.3 593.7L283.8 594L282.2 594.3H281.8L280.8 593.9L280 593.5L278.5 592.8L278.1 592.5L277.1 592.3L275.2 592.1L274.6 591.8L274.1 591.7L273 591.1L272.6 590.8L272 590.2L271.6 589.5L270.9 588.8L270.6 588.5L270.2 588.2L269.4 587.9H268.8L268 588.2L267.3 588.8L266.7 589.1L266.1 589.3H265.7L265.3 589.2L264.9 589.1L263.8 588.5L263.3 588.4L262.4 588.6L261.6 589L260.7 589.7L260 589.8H259.4L258 589.2L257.2 588.8L256.7 588.5L255.8 588.7L255.5 588.9L254.4 589.7L253.5 590.3L252.3 591.3L251.7 591.9L251.4 592.8L251.3 593.5L251 593.8H250.8L249.9 593.5L249.6 593.3L249.4 593L249.3 592.5L248.9 591.9L249.2 591.2L249.1 591.1L249 590.6L248.8 590.3L248.5 590.2L247.7 590.1L247.1 589.9L246.9 589.6L246.2 588.7L246.1 588.3V586.9L246 586.7L245.8 585.7L245.4 585.1L244.9 584.9H244.4L243.8 585.4L243.7 585.9L243.2 586.2H242.7L241.4 585.7L240.6 585.2L240.1 584.6L239.8 584L239.5 583.7L238.7 583.4H237.4L236.8 583.7L236.3 584.4L236.1 584.6H235.7L235.2 584.3L235 583.6L234.3 582.6L234.1 582.4L233.9 581.9L233.8 581.5L233.6 581.3L232.9 580.9L232.3 580.8L231.4 580.6L230.2 580.7L229.3 580.4H228.9L228.5 580.5H228.1L227.9 580.2L227.5 579.5L226.9 579.2H226.3L225.5 579H225.3L224.8 579.3L224 579.5L223.6 579.8L223.2 579.9L222.2 579.5L221.8 579.2L221.1 578.5L220.8 578.1L220.2 577.1L220.1 577L219.8 576.1L219.7 575.5L219.8 574.3L219.6 573.3L219 572.1L218.3 570.5L217.7 568.9L217.3 567.9L216.7 566.9L215.3 564.9L214.9 564.5L213.9 563.9L212.9 563.2L211.8 562.1L211.4 561.5L210.6 560.8L209.7 559.9L208.9 559.5L208.5 559.1L207.8 558.8H207.1L206.5 558.9L205.8 559L205 559.2H204.3L203.7 559.5H203L201.9 559.1L201.3 558.7L200.4 558.3H199.5L198.3 557.9L195.9 557.8H195.2L194.3 557.6L193.1 557.1L191.6 556.4L190.7 556.1H189.5L188.9 556.3L188.2 556.8L188 557.4V557.8L189 558.9L189.4 559.6L189.5 560L189.2 560.6L187.8 560.8L185.8 560.2L185.5 559.7L185.8 558.9L185.7 558.2L185.3 558.6L184.7 559.2L184.2 559.5L183.5 560.2H183L182.5 559.9L182 558.8L182.4 557.9L182.2 557L181.7 556.7L181.2 556.6L180.3 556.7L179 557.8L177.2 558L176.6 557.7L176 557.2L175.9 556.6L175.5 555.1L175.8 555.2L175.9 555.1L175.8 554.7L175.9 554.2L176.1 554L176.4 553.9L176.8 554L177.1 554.4V554.8L176.9 554.9V555.3L177.2 555.6L177.5 555.7L177.9 555.4V554.9L178.4 554.4L178.8 554.3L179.1 554.4L180.3 554.9L182 555L182.4 554.8L182.8 554.5L183 554L182.9 553.5L182.7 553.2L182.3 552.8H182L181.9 552.9L181.3 553.6L181 553.8L180.6 553.9L180 554L178.9 553.9L178.6 553.8L178.2 553.2V552.9L178.4 552.4L178.9 552.1H179.2L179.6 552.2L179.9 552.4L180.3 552.5L180.6 552.3L180.7 552.1L180.5 551.8L179.9 551.7L179.5 551.4L179.3 551L179.5 550.5L180.5 549.6L180.6 549.1V548.3L180.2 547.7L179.4 547.5L178.9 547.6L178.7 548.2L178.6 550.4L178.5 550.7L178.3 551.1L177.9 551.3L177.3 551.1L176.8 550.6L175.9 549.1L175.8 547.7L175.7 547.2L175.3 546.7H174.7L174.1 547L173.8 547.5L173.7 548.1L174 548.5L174.7 548.9L175.1 549.3V549.9L174.4 551.5L174 552.1L173.4 552.3L173.1 552.6L172.6 552.5L171.7 552.8L171.2 552.5L171 552.1V551.7L172.3 550.8L172.4 550.4L172.2 550.1L173.1 549.4L173.3 548.8L173.2 548.2L172.7 547.7L172.1 547.6L171.5 548L171 549.5L169.6 549.2L169.1 548.6L168.9 547.9L169.2 547.4L170 547L170.4 546.6L170.7 545.8L170.4 545.4L169.9 545.1H169.6L168.5 545.7L167.9 545.8L166.8 545.5L165.9 544.9L165.2 544.1L164.6 544L163.8 543.6L163.9 543.2L164.1 543L165.7 542.3L165.9 542L165.8 541.6L166.1 541.7L168.7 541.2L168.9 541.1L169.2 540.6L169.3 540L169 539.5L168.6 539.3H167.6L167.1 539.5L165.7 539.1L165.4 539L163.9 539.5L163.7 539.7H163.3L163.2 539.5L163.7 539.3L164.1 539.2L163.9 537.6L163.6 536.4H164.2L164.5 535.9L165.7 535L165.8 534.7L165.7 534.2L165.5 534L164.8 534.2V534.1L162.9 533.7L161.1 534L160.1 533.7L159.7 533.2L159.6 532.8L159.8 532.5L160.1 532.2L160.6 532.3L160.9 532.9L161.4 533.1L161.9 533.2L162.4 533.1L162.8 532.7L163 532.2L162.5 532.4L162.1 532.6H161.7L161.4 532.4L161.2 532.1L161 531.2L161.2 530.6L161.1 530.1L161 529.9L159.9 529.3L159 529.2L158.6 529.1L158.3 529.3L157.8 529.4L157.4 529.6L156.8 530L156.5 530.2H156.2L155.7 529.9L155.6 529.4L155.9 528.9L156.4 528.7H156.7L157.3 528.9L157.9 529L158.2 528.8L158.1 528.5V528L158.6 527.3L158.8 526.4L159.6 526.3L160.2 525.9L160.3 525.7L160.1 525.4L159.8 525.3L158.7 525.6L158.4 525.4L158.3 525.7L157.8 525.4L157.3 525.6L156.9 525.4L157.5 524.4L157.8 524L158.1 523.6V523L157.8 522.5L157.4 522.4L157 522.6L156.9 523.7L156.4 523L155.6 522.9H154.9L153.5 523.9H152.8L152.1 523.5L151.9 522.6H152.2L152.5 522.4L152.8 521.7L152.9 521.3L152.7 520.7L152.1 520.5V520.2L152 519.8L151.8 519.3L151.9 519.1L152.4 519.3L152.9 518.8L153.5 518.6L153.6 518.4L153.4 518.1L153.1 517.9L153 517.7L152.8 517.6L152.6 517.1L152.9 517V516.8L152.6 516.5L152.5 516.1L152.3 516V515.8L152.4 515.4L152.7 515.2L152.8 514.8L152.1 514.4L151.6 514.1L151.5 513.8L151 513.5L150.4 513.7L150.3 513.9L150 513.8L149.8 513.6V513.4L149.2 513.1L149.4 512.8L149.5 512.6L149.2 512.5L149.4 512.3L149.3 512.1L149.5 511.9H149.7L149.5 511.7V511.3L149.8 511.2L149.7 510.8L149.5 510.7L149.2 510.8L149.1 510.5L148.8 510.4L148.5 510.6L148.2 510.5L147.6 510.6L146.9 510.2L146.6 510.5L146.4 510.4L146.3 510.9L146 511.1H145.5L145.3 510.9L144.9 511.1L144.6 510.7L144.7 510.4L144.5 510L144.6 509.8L144.7 509.2L144.4 509.1V508.9H144L143.7 508.7L143.4 509.1L143.1 509.4H142.8L142.5 509.1L142.2 508.7L141.7 508.2L141.5 507.5L140.3 507L140.1 506.8L140 506.9L139.7 506.7L139.5 506.9H139.3L139.1 507V507.4H138.6L138.5 507.1L138.3 506.9H138H137.6L137.4 506.5L137 506.2L136.8 505.9L136.4 505.2L136.3 505L136.4 504.5V504.1L135.1 504.2L134.5 504L130 501.2L129.8 501.3L129.2 500.8L129 500.7L128.9 500.6H128.6L128.5 500.4L128 500.1L127.7 499.9L127.4 500.1V500L126.9 499.9L126.8 499.8L126.6 500.1H126.4V500.4L125.9 500.2L125.8 499.9L125.4 499.4H125.1L124.8 499.9L124.5 500L124.1 499.5L123.7 499.7H123.5L123.4 499.5L123 499.4L123.1 498.9L122.9 498.6L123 498.2H122.9L123 497.9L122.7 497.6L122.8 497.4L123.1 497.5V497L123.3 496.8V496.3L123 495.7L122.5 495.8L122.4 496L122.1 496.3H121.8L121.5 496.2L121.1 496.3L120.7 496L120.5 496.1L120.4 496.5L119.7 496L119.6 495.6L119.2 495.4L118.9 495L117.9 494.2L117.8 493.7L117.6 493.3L117.4 493.4L117 492.8L116.3 492.2L114.5 491.8L113.7 490.8L113.3 489.8L113 489.5L112.9 489.1L112.5 488.9L111.2 488.3L110.7 488L110.5 487.6L110.4 487.4L110.8 485.9L110.7 484.8L110.5 484.3L110.4 483.6L110 483.5L109.7 483.2L109.5 482.9L109.3 482.4L109.2 481.6L109 481.1V480.7L109.3 480.2V480L109.2 479.5L108.8 479L108.7 478.8L108.8 478.4L108.9 478L109.6 477.2L109.7 476.8V476.3L109.5 476.2L108.8 476.4L108.6 476.3L108.4 476L108.9 475.4V475.2L108.8 474.9L108.5 474.7H107.9L107.4 474.6L107.2 474.4L107 474.1L107.3 473.7L107.7 473.5L107.8 473.2V472.7L107.5 472.4H107.2L106.4 473H106.3L105.5 472.5L105.6 471.6L105.5 471.2L104.8 470.7L104.4 470.6L104.1 470.7L103.5 470.5L103.3 470.2L103.4 469.7L103.6 469.3L103.8 468.9L103.7 468.6L103.5 468.4H103.1L102.9 468.6L102.7 468.8V469.4L102.5 469.8L102.2 469.9H102L101.8 469.6L101.7 468.8L101.4 468.6L101.1 468.7L100.7 469.1L100.3 469.2L100.1 469L99.9 468.2L99.8 467.9L99.6 467.8L99 467.9L98.7 467.8L98.5 467.3L98.7 466.7L98.6 466.4L98.3 466.2L97.5 465.9L97.3 465.8H97L96.5 466L95.9 466.6L95.6 467.1L95.5 467.3L95.1 467.5L94.8 467.4L94.6 467.1L94.3 466.4L94.1 466.1L93.6 466.2L93.3 466.5L93.2 467.2L93 467.5H92.6L92.2 467.3L92 466.9V466.6L91.9 465.9L91.8 465.7L91.5 465.5L91 465.6L90.6 466.1H90.1L89.9 466L89.5 465.3L89.6 463.5V463.4L89.1 463L88.8 462.9H88.3L87.9 463L87.6 463.1L87.3 463.6V464.1L87.2 464.7L86.8 464.9H86.6L86.4 464.6L86.2 464.3V463.7L86.1 463.5L85.7 463L85.3 462.8L85 462.5L84.5 461.9L84.4 461.6L84.2 461L83.9 460.3L83.4 459.6L83 459L82.8 458.7L82.3 457.8L82.2 457.3L81.3 455.5L81.1 455L81 454.7L80.5 454.4L80.2 453.8V453.3L80.1 453L79.7 452.8L79.2 452.9L78.9 453.2L78.6 453.5L78.3 453.8L77.9 453.7L77.8 453.4L77.9 453L78.5 452.8L78.8 452.6L78.9 452.3L79 452L79.1 451.5L78.8 450.9L77.7 450.3L77.4 450.2L77.2 450L76.3 449.8H75.9L75.7 449.9L75.2 449.8L74.9 449.7L74.6 449.8L74.3 450.3H73.9L73.7 450.1L73.6 449.3L73.4 449.1L73 448.9L72.7 449L72.4 449.5L72 449.7L71.8 449.5L71.7 449L71.4 448.9H71.2V448.6L71 448.3L70.5 447.9V447.7V447.4L70.4 447.3L70 447.2L69.7 447.3L69.5 447.1L69.1 447.4L68.9 447.2L67.9 447.1H67.4L66.9 446.9L66.7 446.7L66.6 446.3L66.1 445.9L65.4 445.6L65.3 445.4V445.1V444.9L64.5 444.5L64.1 444.6L63.3 444.1L62.9 443.9L62.6 443.7L62 443.5L60.5 442.3H60L59.8 442.2L58.7 441.2L58.8 440.5L59.6 440.8L60 439.3L59.8 439.1L59.3 439.2L59 439.1L58.9 439L59 438.5L58.8 438.3L59.3 437.5L59.4 437.2L59.7 437.1L59.6 436.7L59.7 436.1L59.8 436.2L59.9 435.8L59.8 435.7L59.4 435.5L59.3 435.1L58.8 435L58.1 435.1L57.8 434.8L57.9 434.5L57.7 434.4L57.9 434.3L57.7 434.1L57.8 433.9L57.6 433.8L57.9 433.2L58 432.6L57.9 432.5V432.1L58 431.7V431.4L56.5 428.8L56.2 429L56 428.9L55.9 429.1L55.3 429.4L54.9 429.2L54.6 429.3H54.3V428.9L53.9 428.7L53.6 428.8L53.1 428.6H52.8L52.7 428.3L52.8 427.8L52.7 426.9L52.8 426.5L53 426.2L52.9 426L52.6 425.8L52.4 425.3L52 424.7L51.5 424.1L51 424.5H50.8L50.3 423.2L50 422.7V422.6L49.8 422.2L48.9 422V421.8L48.6 421.4H48.4L47.9 420.3L47.7 419.9L47.5 419.2L45.8 418.8H45.5H44.5L44 418L43.4 417.3L43.2 416.6L43.1 416.5L42.8 415.8L42.2 415.6L42 415.3L42.1 415.1L41.6 414.8H41.4L41.1 414.6L41 414.4H40.5H40.4L39.8 414.5V414H39.7L39.6 413.6L39.5 413.5V413.2L39.8 413L39.2 412.4L38.9 412.3V410.3L39.2 410.4L39.5 410H39.7V409.2H40L40.1 408.6L39.8 408.5V408.2L40.4 408L40.7 408.3L40.9 408.2L41 408.6L41.5 408.8L41.4 409.3L42.1 409.1L42.5 409.2H43.2L43.8 409.3L43.7 409.1L43.8 408.8L43.9 408.4L43.6 408.1L43.9 407.8L44.3 407.6L44.6 406.9V406.6L43.9 406.1L44.1 405.5L44.5 405.4L44.6 405.1L44.1 405L44 404.8L44.2 404.4L44.3 403.5L44.6 402.9L44.8 402.3L45.1 401.9L44.6 401.6L44.4 401.5L44 401.6L43.4 401.5L43.1 401.6H42.8L42.2 401.4L41.4 401.2H40.4L40.1 401.1H39.3H38.5H38.3L38 400.8L37.4 400.5L37.1 400.1L36.5 399.8L37.4 398.9L37.7 398.7L38 398.4L38.1 398.2V397.5L37.4 397.1V396.8L37.1 396.7L36.8 396L36.4 396.4H36.3V396.6L35.6 397.2L35.1 397.1L35 397.3L34.8 397.7L34.7 397.3L34.4 396.9L34.2 395.9L34.3 395.5L33.9 395.6H33.5L33.4 395.5L33.8 395L33.9 394.5L33.7 393.9L33.3 393.3V393.1L32.8 392.9L32.5 392.1L32.3 391.9L31.6 391.6L31.4 391.3L31.3 390.6L31 390.5L30.8 390.4L30.2 390.2L30.3 390H29.9V389.6L29.3 389.4V389.1L29.6 388.8L29.8 388.5L29.7 388.3V388L29.9 387.6L29.8 387.2L30.4 386.6L30.7 385.9L30.8 385H31L30.9 384.4L30 384.5H29.4H29.1L28.4 384.4V384.1L28.2 383.1V382.6L28.4 381.7V381.4L28.5 381V380.3L28.9 380.2L29.2 379.7H29.5L29.9 379.5H30.3L30.6 379.3L30.8 379.4L31.5 379.3L31.6 379.2L32.4 378.9L32.5 378.5V377.9L32.6 377.5V376.9L32.4 376.6L32.5 375.7L32.4 375.2H32.9V374.9L33 373.6L33.9 373.5L33.8 373L33.6 372.4L33.5 372L33.6 371.8L33.5 371.3L32.9 370.9L32.8 370.7L32.5 370.9L32.2 370.8L32.4 370.1V370L32 370.1L31.8 370L31.2 370.2L30.9 370.4L30.8 370.1L30.6 369.8H30.4L30.2 369.4L29.9 369.1L29.6 368.7L29.4 368.1L29 367.9L28.7 368L27.7 367.9L27.8 367.8L27.9 367.3H27.4H27.5H26.9L26.6 366.8V366.6L26.4 366.7L26.3 365.9L26.1 365.5L25.9 364.9L25.4 364.5L24.6 364.6H24.2H24L23.3 364.7H23.1L22.5 364.6L21.9 364.8L20.9 364.6L19.7 364.2H19.3H18.9L18.4 363.8H17.9H17.5L17.1 363.7L16.8 363.9L16.3 364.4L16.1 364.9L15.9 364.7L15.2 365.2L14.8 365.3L14.6 365.4L14.1 365.3L13.7 365.2L12.9 365.3L12.1 365.6L12 365.8L11.2 365.9H10.8L10.3 366L9.9 366.3L9.6 366.9L9.5 367.2L9 367.8H8.8L8.6 367.6L7.7 367.3L7.4 367.2L7 367.4L6.7 367.8L6.3 368.2L6.1 368.5L5.4 368.2L5.2 368.1H5V368.3H4.2H3.7L3.3 367.9L2.9 368.1L2.6 367.8L2.3 367.9H1.8L1.5 366.6L1.2 366.7L1 366.4L0.7 366.5H0.5L0.4 366.2V365.8L0.2 365.6L0 365.3Z" fill="#72CB76" fill-opacity="0.3"/>
</svg>
