<svg version="1.2" xmlns="http://www.w3.org/2000/svg" viewBox="0 0 512 512" width="512" height="512"><style>.a{fill:#62e067}</style><path class="a" d="m255.2 249.3c28.2-45.9 53-89.9 81.6-131.4 13.3-19.4 32.1-35.8 50.9-50.2 52.8-39.8 123.9 10.7 123.2 66.6-1.3 101.7 0.3 203.5 1.1 305.2 0.1 14.6-4.9 20.4-19.5 19.9-22.4-0.9-44.8-1.3-67.1 0.1-18.6 1.2-23-6.9-22.8-24.2 0.7-63.5 0.3-127 0.2-190.4 0-3.8 0-7.7 0-16.1-23.3 38.6-42.4 74.6-66 107.3-13.6 19-32.9 34.9-52.3 48.4-25.6 17.9-54.1 13.4-73.1-9.4-30.6-36.7-57.1-77-84.7-116.2-6.4-9-10.7-19.5-19.6-36.2v234.9h-106.2c0-8.3 0-16.1 0-23.9-0.3-100.1-1.6-200.2-0.4-300.2 0.3-30.7 17.1-56.5 43.8-70.6 24.6-13.1 51.6-14.1 76.9 1.8 45.8 28.9 70 76.2 97.6 120.4 12.7 20.1 23.6 41.3 36.4 64.2z"/></svg>