<svg width="48" height="36" viewBox="0 0 48 36" fill="red" xmlns="http://www.w3.org/2000/svg">
<g id="monotop_teljes_logo_ver02 1" clip-path="url(#clip0_638_7656)">
<g id="Layer_1-2">
<g id="Group">
<g id="Group_2">
<path id="Vector" d="M4.22983 32.5032C4.69612 31.7436 5.1083 31.0131 5.58095 30.3256C5.80137 30.0041 6.11329 29.732 6.42601 29.4947C7.3005 28.8339 8.47895 29.6721 8.46702 30.5985C8.44474 32.2837 8.47179 33.9697 8.48532 35.6558C8.48771 35.8979 8.40416 35.9943 8.16226 35.9853C7.79145 35.9716 7.41906 35.9643 7.04985 35.9878C6.74111 36.0072 6.6687 35.8728 6.67188 35.5861C6.68382 34.5342 6.67666 33.4822 6.67586 32.4303C6.67586 32.3671 6.67586 32.304 6.67586 32.1647C6.28914 32.8044 5.97245 33.4012 5.58255 33.943C5.35577 34.258 5.03589 34.5204 4.71522 34.7447C4.2911 35.0411 3.81844 34.9658 3.50334 34.5884C2.99567 33.9811 2.55803 33.3122 2.0997 32.6635C1.99386 32.5145 1.92225 32.3404 1.77425 32.0634V35.9554H0.0157139C0.0157139 35.8185 0.0157139 35.689 0.0157139 35.5594C0.0101439 33.9009 -0.0113405 32.2424 0.00775673 30.5839C0.0133267 30.0754 0.291032 29.6486 0.734246 29.4138C1.14165 29.1975 1.58964 29.1805 2.00819 29.4445C2.7673 29.9239 3.16834 30.707 3.62668 31.4391C3.83595 31.7727 4.01658 32.125 4.22983 32.5032Z" fill="#62E067"/>
<path id="Vector_2" d="M17.2741 32.0798V35.9766C16.7306 35.9766 16.207 35.9855 15.685 35.9653C15.6238 35.9628 15.5179 35.8041 15.5179 35.7166C15.5076 33.9901 15.4981 32.2636 15.5156 30.5371C15.5203 30.0464 16.0208 29.4382 16.4322 29.3264C17.0258 29.1653 17.5773 29.2511 17.9433 29.7832C18.6268 30.776 19.2698 31.7988 19.931 32.8078C20.0758 33.0281 20.227 33.2435 20.4307 33.5415V29.2552H22.1908C22.202 29.3459 22.2258 29.4479 22.2258 29.55C22.2235 31.4247 22.2227 33.3002 22.2123 35.1749C22.2091 35.7887 22.003 35.9831 21.4055 35.9831C21.0609 35.9831 20.7124 35.9499 20.3726 35.9912C19.9389 36.0446 19.6994 35.847 19.4838 35.4939C18.848 34.4525 18.1876 33.4273 17.5343 32.3972C17.4802 32.3122 17.4062 32.2401 17.2741 32.0806V32.0798Z" fill="#62E067"/>
<path id="Vector_3" d="M44.1239 34.2821V35.943H42.3638V31.4542H44.0897C44.1048 31.7587 44.1207 32.0737 44.1374 32.4235H46.2206V31.0882C46.075 31.0768 45.9222 31.055 45.7694 31.0542C44.7485 31.0509 43.7268 31.0436 42.7059 31.0582C42.4147 31.0623 42.3033 30.9756 42.3176 30.6695C42.3399 30.2128 42.3232 29.7536 42.3232 29.2483C42.4712 29.2369 42.5969 29.2183 42.7234 29.2183C44.1024 29.2167 45.4814 29.2151 46.8604 29.2208C47.5319 29.2232 47.9919 29.7058 47.9895 30.3747C47.9855 31.3465 47.9632 32.3191 47.999 33.2892C48.0181 33.8205 47.6131 34.2845 47.049 34.2772C46.2405 34.2659 45.4313 34.2796 44.622 34.2829C44.4772 34.2829 44.3324 34.2829 44.1231 34.2829L44.1239 34.2821Z" fill="#62E067"/>
<path id="Vector_4" d="M22.909 31.4448H24.7081V34.6363H26.7969V31.457H28.5427C28.5538 31.5347 28.5769 31.6238 28.5777 31.7129C28.5809 33.0078 28.5753 34.3034 28.5849 35.5983C28.5865 35.8777 28.4782 35.9846 28.2101 35.9846C26.5797 35.9806 24.9484 35.9773 23.318 35.9862C22.8867 35.9887 22.9146 35.672 22.9106 35.4072C22.8979 34.463 22.9082 33.5179 22.909 32.5737C22.909 32.2109 22.909 31.8481 22.909 31.4448Z" fill="#62E067"/>
<path id="Vector_5" d="M9.14408 31.4398H10.9201V34.6377H13.0399V31.4446H14.7881C14.7976 31.5531 14.8159 31.6681 14.8159 31.7831C14.8175 33.0108 14.8064 34.2385 14.8199 35.4661C14.8239 35.8338 14.7316 35.9966 14.3306 35.9909C12.767 35.9706 11.2026 35.9706 9.63822 35.9909C9.28094 35.9958 9.15124 35.8281 9.14885 35.5293C9.13851 34.1818 9.14408 32.8343 9.14408 31.439V31.4398Z" fill="#62E067"/>
<path id="Vector_6" d="M35.9629 31.4368H37.7223C37.7318 31.5818 37.7485 31.7227 37.7485 31.8636C37.7509 32.6726 37.7565 33.4816 37.7469 34.2906C37.7438 34.5595 37.8217 34.6801 38.1098 34.6704C38.6763 34.6518 39.2445 34.6647 39.8476 34.6647V31.4555H41.6109C41.6205 31.5559 41.6404 31.6709 41.6404 31.7851C41.6404 32.999 41.6412 34.2121 41.6364 35.426C41.634 35.9718 41.6181 35.9823 41.0683 35.9823C39.558 35.9823 38.0469 35.9645 36.5375 35.9944C36.1292 36.0025 35.9717 35.8292 35.9685 35.4802C35.9558 34.1473 35.9629 32.8135 35.9629 31.436V31.4368Z" fill="#62E067"/>
<path id="Vector_7" d="M29.3203 31.0129V29.2168H32.7682V35.9755C32.2485 35.9755 31.7242 35.9892 31.203 35.9584C31.1369 35.9544 31.0343 35.722 31.0327 35.5948C31.02 34.2862 31.0271 32.9775 31.0239 31.6689C31.0224 30.9911 31.1083 31.0551 30.3977 31.0502C30.093 31.0478 29.7882 31.047 29.4834 31.0429C29.4444 31.0429 29.4055 31.0283 29.3203 31.0113V31.0129Z" fill="#62E067"/>
<path id="Vector_8" d="M28.5787 31.027C28.4028 31.0375 28.2739 31.0513 28.145 31.0513C26.544 31.0529 24.9423 31.0415 23.3413 31.0602C22.984 31.0642 22.9203 30.9435 22.8949 30.6018C22.8241 29.643 23.3651 29.1871 24.25 29.2114C25.2685 29.2397 26.2878 29.2178 27.3071 29.2178C28.3121 29.2178 28.5779 29.4843 28.5787 30.4868C28.5787 30.6577 28.5787 30.8286 28.5787 31.0253V31.027Z" fill="#62E067"/>
<path id="Vector_9" d="M35.9598 31.0522C35.9598 30.7566 35.9526 30.5412 35.9614 30.3266C35.9884 29.6601 36.4133 29.2269 37.0706 29.222C38.2483 29.2123 39.4267 29.2156 40.6044 29.2212C41.2919 29.2245 41.6595 29.6537 41.6452 30.2966C41.6261 31.198 41.7287 31.0449 40.9163 31.0498C39.4339 31.0595 37.9515 31.0522 36.469 31.0522H35.9598Z" fill="#62E067"/>
<path id="Vector_10" d="M14.8197 31.0522C13.7431 31.0522 12.7365 31.0522 11.7299 31.0522C10.9875 31.0522 10.2451 31.0424 9.50273 31.057C9.22741 31.0627 9.13909 30.9688 9.13352 30.6869C9.11442 29.6115 9.47966 29.2188 10.538 29.2188C11.5453 29.2188 12.5535 29.2382 13.5609 29.2123C14.3439 29.1928 14.9064 29.5014 14.8221 30.4756C14.807 30.6464 14.8197 30.8197 14.8197 31.0522Z" fill="#62E067"/>
<path id="Vector_11" d="M35.6851 29.2197C35.2833 29.8222 34.9554 30.3648 34.5679 30.8596C34.4613 30.9964 34.1804 31.0353 33.9767 31.0426C33.1738 31.0709 33.1738 31.0596 33.1738 30.2547C33.1738 29.5647 33.508 29.2197 34.1764 29.2197H35.6851Z" fill="#62E067"/>
</g>
<g id="Group_3">
<path id="Vector_12" d="M11.9625 21.6502C10.434 21.6502 9.18945 20.3845 9.18945 18.828V2.82218C9.18945 1.26573 10.4332 0 11.9625 0C13.4919 0 14.7356 1.26573 14.7356 2.82218V18.828C14.7356 20.3837 13.4919 21.6502 11.9625 21.6502ZM11.9625 1.61962C11.3108 1.61962 10.7809 2.15895 10.7809 2.82218V18.828C10.7809 19.4913 11.3108 20.0306 11.9625 20.0306C12.6142 20.0306 13.1442 19.4913 13.1442 18.828V2.82218C13.1442 2.15895 12.6142 1.61962 11.9625 1.61962Z" fill="#62E067"/>
<path id="Vector_13" d="M27.1988 0.104492C20.7416 0.104492 15.4883 5.45084 15.4883 12.0224V21.6494H31.0231C35.7512 21.6494 39.5977 17.7348 39.5977 12.9229V0.104492H27.1988ZM17.0797 12.0224C17.0797 6.34406 21.6193 1.72411 27.1988 1.72411H38.0063V6.53113H26.6705C22.6028 6.53113 19.0364 8.75243 17.0797 12.0662V12.0224ZM37.9975 13.2809H23.8162C21.5851 13.2809 19.4971 14.1247 17.9375 15.6577C17.6622 15.9281 17.4091 16.2156 17.1784 16.5169C17.846 11.7933 21.8476 8.15074 26.6713 8.15074H38.0071V12.9229C38.0071 13.0428 38.0039 13.1618 37.9983 13.2809H37.9975ZM31.0231 20.0306H17.254C17.9375 17.057 20.5745 14.9005 23.8162 14.9005H37.7309C36.8875 17.8603 34.1996 20.0306 31.0231 20.0306Z" fill="#62E067"/>
<path id="Vector_14" d="M12.3906 27.2144H11.5344C10.2414 27.2144 9.18945 26.1438 9.18945 24.8279C9.18945 23.512 10.2414 22.4414 11.5344 22.4414H12.3906C13.6837 22.4414 14.7356 23.512 14.7356 24.8279C14.7356 26.1438 13.6837 27.2144 12.3906 27.2144ZM11.5344 24.0618C11.1191 24.0618 10.7809 24.406 10.7809 24.8287C10.7809 25.2514 11.1191 25.5956 11.5344 25.5956H12.3906C12.806 25.5956 13.1442 25.2514 13.1442 24.8287C13.1442 24.406 12.806 24.0618 12.3906 24.0618H11.5344Z" fill="#62E067"/>
<path id="Vector_15" d="M37.2535 27.2144H17.8333C16.5402 27.2144 15.4883 26.1438 15.4883 24.8279C15.4883 23.512 16.5402 22.4414 17.8333 22.4414H37.2535C38.5466 22.4414 39.5985 23.512 39.5985 24.8279C39.5985 26.1438 38.5466 27.2144 37.2535 27.2144ZM17.8333 24.0618C17.4179 24.0618 17.0797 24.406 17.0797 24.8287C17.0797 25.2514 17.4179 25.5956 17.8333 25.5956H37.2535C37.6689 25.5956 38.0071 25.2514 38.0071 24.8287C38.0071 24.406 37.6689 24.0618 37.2535 24.0618H17.8333Z" fill="#62E067"/>
</g>
</g>
</g>
</g>
<defs>
<clipPath id="clip0_638_7656">
<rect width="48" height="36" fill="red"/>
</clipPath>
</defs>
</svg>
