<svg width="61" height="64" viewBox="0 0 61 64" fill="none" xmlns="http://www.w3.org/2000/svg">
<g id="logo 2" clip-path="url(#clip0_638_8243)">
<g id="Page-1">
<g id="Forside">
<g id="CRH_100_CMYK">
<path id="Rectangle-path" d="M0 60.9521H61V63.9998H0V60.9521Z" fill="#4F8ABE"/>
<path id="Rectangle-path_2" d="M0 0H61V60.9524H0V0Z" fill="#01325B"/>
<g id="Group">
<path id="Shape" d="M13.9579 17.8624C13.9579 17.8624 13.9383 17.2369 14.6597 17.2369C15.3811 17.2369 15.3643 17.8624 15.3643 17.8624V28.059H21.5304V17.8088C21.5304 16.727 20.2959 15.8613 19.3352 15.8613H9.96338C8.56515 15.8613 7.69141 16.5731 7.69141 17.8088V40.0963C7.69141 41.641 9.02388 42.3305 10.159 42.3305H19.401C20.8425 42.3305 21.5304 41.0886 21.5304 40.0963V29.7796H15.3643V40.6599C15.3643 40.6599 15.2708 41.254 14.6597 41.254C14.0474 41.254 13.9579 40.6599 13.9579 40.6599V17.8624Z" fill="white"/>
<path id="Shape_2" d="M37.2166 26.5148V18.085C37.2166 17.0031 36.5945 15.8623 35.1305 15.8623H23.3984V42.3306H29.493V29.8239C30.4983 29.8239 30.9799 29.8466 30.9799 30.5088V42.3306H37.217V31.3691C37.217 29.1629 35.2399 29.0742 35.2399 29.0742C35.2399 29.0742 37.2166 28.721 37.2166 26.5148ZM30.9141 27.3751C30.9141 28.2354 30.3676 28.0811 29.5159 28.0811V17.3126C30.1715 17.3126 30.9141 17.3126 30.9141 17.9521V27.3751Z" fill="white"/>
<path id="Shape_3" d="M38.8672 15.8613H44.9409V27.9934H46.623V15.8613H52.9582V42.3305H46.623V29.9347H44.9409V42.3305H38.8672V15.8613Z" fill="white"/>
</g>
</g>
</g>
</g>
</g>
<defs>
<clipPath id="clip0_638_8243">
<rect width="61" height="64" fill="white"/>
</clipPath>
</defs>
</svg>
